<mxfile host="app.diagrams.net" agent="Mozilla/5.0 (X11; Linux x86_64) AppleWebKit/537.36 (KHTML, like Gecko) Chrome/127.0.0.0 Safari/537.36" version="24.7.12">
  <diagram name="Page-1" id="jpeZFk1gVBbguVuYsgxG">
    <mxGraphModel dx="2703" dy="1063" grid="1" gridSize="10" guides="1" tooltips="1" connect="1" arrows="1" fold="1" page="1" pageScale="1" pageWidth="850" pageHeight="1100" math="0" shadow="0">
      <root>
        <mxCell id="0" />
        <mxCell id="1" parent="0" />
        <mxCell id="2QkX6RSnDl6fCv8vAZ2F-18" value="" style="rounded=0;whiteSpace=wrap;html=1;" parent="1" vertex="1">
          <mxGeometry x="-850" y="70" width="810" height="580" as="geometry" />
        </mxCell>
        <mxCell id="2QkX6RSnDl6fCv8vAZ2F-14" value="Host 2&lt;div&gt;192.168.31.131&lt;/div&gt;" style="rounded=0;whiteSpace=wrap;html=1;verticalAlign=bottom;" parent="1" vertex="1">
          <mxGeometry x="-293.77" y="300" width="200" height="290" as="geometry" />
        </mxCell>
        <mxCell id="2QkX6RSnDl6fCv8vAZ2F-13" value="Host 1&lt;div&gt;192.168.31.132&lt;/div&gt;" style="rounded=0;whiteSpace=wrap;html=1;align=center;verticalAlign=bottom;" parent="1" vertex="1">
          <mxGeometry x="-630" y="140" width="200" height="450" as="geometry" />
        </mxCell>
        <mxCell id="2QkX6RSnDl6fCv8vAZ2F-1" value="" style="image;html=1;image=img/lib/clip_art/computers/Server_Tower_128x128.png" parent="1" vertex="1">
          <mxGeometry x="-573.77" y="480" width="80" height="80" as="geometry" />
        </mxCell>
        <mxCell id="2QkX6RSnDl6fCv8vAZ2F-2" value="" style="image;html=1;image=img/lib/clip_art/computers/Server_Tower_128x128.png" parent="1" vertex="1">
          <mxGeometry x="-233.77" y="480" width="80" height="80" as="geometry" />
        </mxCell>
        <mxCell id="2QkX6RSnDl6fCv8vAZ2F-10" value="query data" style="edgeStyle=orthogonalEdgeStyle;rounded=0;orthogonalLoop=1;jettySize=auto;html=1;entryX=0.5;entryY=0;entryDx=0;entryDy=0;" parent="1" source="2QkX6RSnDl6fCv8vAZ2F-4" target="2QkX6RSnDl6fCv8vAZ2F-5" edge="1">
          <mxGeometry relative="1" as="geometry" />
        </mxCell>
        <mxCell id="2QkX6RSnDl6fCv8vAZ2F-4" value="" style="shape=image;verticalLabelPosition=bottom;labelBackgroundColor=default;verticalAlign=top;aspect=fixed;imageAspect=0;image=data:image/png,iVBORw0KGgoAAAANSUhEUgAAAgAAAAIMCAYAAACDuhSBAAAABGdBTUEAALGPC/xhBQAAACBjSFJNAAB6JgAAgIQAAPoAAACA6AAAdTAAAOpgAAA6mAAAF3CculE8AAAABmJLR0QA/wD/AP+gvaeTAAAAB3RJTUUH6AcIAAweF+213wAAeCZJREFUeNrtnXd4VFX6x7/vnZn0hgoqNoSQqliwV+xiBfTOhKaIihXrWnbd1djW3nsFpSUzC2Jb7KLY1i6SBELAXgCV9Dpz398fiftDl5JMvzPfz/PMs/tg5s493/c953zPueeeIyCEkCBYW1aym+HEE1D8x+GSa7OmV/1MVQixD0IJCCF9QU04GlylfxHR6wCk9PxzCwS35/zaeZMsqOugSoTQABBCEojGU4oKNGA8BWCfDTQpyyzFOf1mV71JtQihASCE2H3UD0jj+NJzAb0VQMYm/1zxQEtW+hUDH/2kleoRQgNACLEhq83SrNQUfQKAu4/Ny1eWyOR+M5cspIqE0AAQQmxEw7jioRB5BkBpkJewVHBnbodcJb6qTipKCA0AISTeO/8JxcdCZSaAvDA0NZ+oGu682V+upLKExAcGJSCErIsC0jC+5FqoPB+ezh8AdLhI4KOGccXHUGFCOANACIm3zt8sTWlM0WkAxkXMXwiuy51ZXU61CaEBIITEAT2L/XwAjo6C1ZiT42qbLNO/bqfyhNAAEEJiRPOk0q0CXfoigN2j1/joQn9nx6jNfCsbGAFCaAAIIVGmYUJpPlRfBjA4Bi3QZ46AMTJrzpJVjAQhNACEkCh2/qpYKNBtYngbK9VvHJlXuWQFI0IIDQAhJMLUj9t5sEhgIYDt4uB2vrUC1sH9KpZ+zcgQEh34GiAhSchvp5RuL2K9FiedPwBsbziMt9aWFQ1idAihASCERIBfy3bazhHAQkB3jLNb295wGK+2lBUOZJQIiTx8BEBIElE/bud+IoF3AJTE8W1WqzoOyJv95VpGjBDOABBCQkTN0hSRgC/OO38AKIEE5uvI/FRGjRAaAEJIKJ0/II0peBzAYXa4XwEOatw8dbpylpIQGgBCSPA0jS/5J6AT7eVatKxxQsk1jB4hETPahJBEpmFccRlE5tj09lVEx+TMrJnPSBJCA0AI6SWNEwoLVR0fAci2cTHWqhEYnjdj2VeMKCHhg48ACElQ1kwuzFZ1PGPzzh8A+onlqOSiQEJoAAghvSC1w5gOoDhBirNn42YptzGqhIQPPgIgJAGpn1ByligeTrBiqYoelTez5lVGmBAaAELInzv/7j3+P4f9p/7Xx9cdnbLzAF9VMyNNSGjwEQAhiTREHjHCKWLNTNDOHwAGpabgekaaEBoAQsg6NGyz+jJA901wm3NB44Sd9mO0CaEBIIQAaJhQmg/IP5Ki3VLrQS1n+0UIDQAhBIDeI9D0pCgpsEvT8tKJjDkhwcNFgIQkwujf3rv9BWkC5Id2w1G41YzFLcwAQjgDQEjS8fPEYZkqxu3JN3rRbdIDXRczAwihASAkKUm3ApcKdJukLLzI5U1mfn9mASE0AIQkFS1lhQMBvTyJJci2UlLOZyYQQgNASFIRcDquAZCZ5DKc++OU4RnMBkJoAAhJCn47pXR7VUyiEtgis6WVOhBCA0BIcuAMWH8HkEIlAMD4i5pwUAdCaAAISWh+LdtpO4WcSiV+R3esd+10InUghAaAkITGZVhnc/T/p8bMsCZRBUJ6DzcCIsRuY92R+amNm6V8A2BLqvEHusTyD8yZU/sLpSCEMwCEJByNm7s87PzXi0sNh5syEEIDQEiCTgHIeRRhg4ynBIT0Dj4CIMRG1I8rGi5ifEwlNmyP1G8MzatcsoJSELJxnJSAEBthGGVQyrCxQY3htBY2jC/5RIBqFfnSoYElmZmZS+XRT7ooDyGcASDEfkNbQBrHl3wFYAeq0We6FFgmIktUdTFgfBJA+webz6prTMTCtkwo3rpLpcRQHaSGbAfFDgC2ApDX8+mHP75F4gTgB9AEoBPAO7mzqk9j2tAAEELigIaJJXvDwgdUImxYCqkyoO+p6Huw8H7u7JrldivEr+OHbesQ/34C3QeQPaEo7engQzOcokfmzax5lWlCA0AIibUBGFd8HUT+QSUi2SLKGqj1HwU+MCzjreyf+n8gCxf64+kWdcQIZ/PAVfsFxDhWoMcCKI1Q7/BZTn71HlIOi4lBA0AIiakBKH0FokdQiahSL4rXAV3gMPDvzJk1P8Wk058y3NXU0nqciuGG6lHhGOH30hCNy51ZNYdpQANACIkBTWZ+f8uVciQEjwNIoyKxG3xD9RMY8qKK8ULujCWfCCK7JLPxlKICK+A4XaCnIgZ7PwjwRc6s6l0ZehoAQkg0eplyGI0rSvaEYiQUIwHsAe7ZEY/8DMBrBTC9X0X1Z+G8cMO44mPUMC4X1YNi3U6r6hF5s2teY7hpAAghEer0m5aV7qeGmgBOBjCQqtiKalV52qkyPWvOklXBXqR+XPHhInIjgL3iqGwv5c6qHskQ0wAQQsLIb6eUbu8I4ExATwewNRWxPV0AFgh0enan8aL4qjp786WmsUUHWw7jLih2i0d/akB2yp5VVc3w0gAQQkJpTQFpHFd6JETPBeRYQHmOfWLyC4DZG3tE0G0A9TYA7vjOWbk1b1bVFQwpDQAhJJjRvjk415GSehog5wIYSkWSqKEVXazAk4GOjumb+VY29GzqdD6AmwFk2KCj+D57aPUOfCWQBoAQ0geaxxftbME4T4EJADKpSHKnAyBPC6wShYyw042rIYflzah6gyFMHHgWACERomF8yUiBXh6wWUNPIkoWoOeqHcdeAZ0AgAaAMwCEkPWOksphNNSVjhbVvwHYnYqQBKIxp7NxK/F930YpOANACFm3468tOalxOcoFWkJFSAKS05iafSiAFykFDQAh7PinDHc1NLef1rgcV4rojlSEJHbCYyQNAA0AIcndDppwNLqKxzW2tJWLYDAVIUmByNEUIYHCSQkI6Rv144oPN0RuV2AXqkGSDX/A2H7ziiXfUQnOABCSVB2/ADdBZA+lHCRZOw0jsD+ACipBA0DIBlk7adc86Qz8d5Ypb/aXa+1Yju73+OVeu723TUhkEBoAGgCSbDSP3WlLvxPbGQFrGxVsL6LbqMo2ohioIrmA5gDI6vlko6vzDw+ZGsb/YXG8QuQXqK5R4BdDsEpVV0NlDUR+gVhfq+WsyS348utY7T62dtKueUZX57UB4FzWFUJ+7//j6qAiElIoCflzRz+pdCu/39pZgBJRlCpQCkgJgLxo34tC2kR0KVSXQlGthlFjBIyq7MIvayNlDBSQpgklk1RxM4ABzAhC/thE5MyqzhGAT8JoAIidUXPb9KaU3N0h2FtV9wawD4DtbXDr9QA+gOA/auk7uV1N74Zjg5L6iTvtIZZ1X48OhJD1tRtGYHDejGVfUQkaAGKrDh+OxpTiPaE4XA3jcFHdF0BKAhStHcA7qvKaGnip38yqL/ry5TWTC7NTOhw3ADgfgMFMIWRjHYdxfM6sJS9QCRoAEuc0mKWbwWUdK5ATVXAYYjCVH4PU/grAs5bIs3kdSxaJD4EN/WXj+J2OU1gPwB4zH4TEQfWSqbkzq+6nEDQAJA5pmjhsgKUBt1g6WgUHIbkXsf0E0QrLLzPWPZf91/H5OU6k3ANgEjOGkL70/3pLzsyaK6kEDQCJE9TcNr3RlTMGBsZBcSS4cn19VAv076L41RJ5CsAgSkJIn5mZO6t6ImWwN+wgEoDGU4oK1G+c1SiYBGAzrs3dKCUKmacCpQEmJGi2ogQ0ACRWo/1yGPW1O40yxDpHAzgMws6sj1AvQoKvPpnUgAaAxICG8cX7NNbKU4ZYBVSDEBJ996wZVMH+8HUnO1Y+lQMgYOdPCIkJqkinCjQAJBaVT4TumxASyykAzh7TAJCYGIDuvfYJISRWtFECGgASE/NtcQaAEBLDUYjSANAAkBhZAK7AJYTEsAkSGgAaABIjOANACImlA2ikBjQAJCZ1j2sACCEx5RtKQANAYtH/K9/BJYTEDgW+owo0AIQQQpJtEAJ8SxVoAEgs3LcaXVSBEBK7nkNXUAQaABIT+61+ikAIiRFdOe2NiykDDQCJUQWkBISQ2AxAsER83/M1wASA2znasv6hkyf+EpvSDshPgFUlgioAgIpaKvUC60dD5dOAOILqXJzSlek3HP1FsSUs7Q/oFiIywIIMENH+UGwBYEsA/RiG4FFLPqEKNAAkVhVQxA+lBSDxmZ7oXiBWJ0CdBfla1Poagq8dLuPrrOlVP8f6Bn8dn5/jEFc+FEMB5AswFMBQiDEUqv0Zwk0NQPR7qpAwg0liNxrGlz4N6EQqQeKAnxWoFcViFXnL0dnxVravbo1dC/ObOTjXcKXkixjFUOwmorsrjN0AzWWo/0u7GnJs3oyqNygFDQCJMvUTSh8X1dOpBIlyc7EMwAJVfU8hy7u6UDfAV9Wc6KVWQBonlA6BZe0rIvsrcACAkiRvP5sAOSx3VtVHrBc0ACSqBqDkNlH8hUqQKDQQX1gCr0C8uTOr6qhINw1m6WaSigPU0iMAHAlBQRLK8IsBOTh7VlU1M4IGgETLAIwrvUJEb6YSJALD3VoIXlKRt51OvBsPz+ztwNpxxTuIGEeK6PGqcrhA05MjXeQHDQQO6Fex9GtmAQ0AiQKN44pPV5HHqQQJA62AvAlggaqxIG/2lyspSWj8PHFYZpoGjhbVUQCOA5CX4EVe7rCMA7PmLFnF6NMAkIgbgJITVTCfSpAgaRfovy2RytaM9BcGPvpJKyWJ0Ah5ZH5q02auYwAZp91mIC1Bi/q5H50Hbz6rjqcE0gCQiBqA8aX7K/QdKkH6gAXgFajO9kvXs2yoo89v5uBcZ0raSQqcCWCfxHM78mpOVtqx8ugn3KiMBoBEzABMKCxUdSylEqQX/CSiT1tiPZI3Y9lXlCNO6vDYnYvg8E9SlTMAbJ5ALmBOzqya8dK9HwShASBhbzxOKdpcA8YvVIJsqBUG8IooHsr+ccCLsnAhz46IU36cMjwjo6XtFIFcBGhhgnQrN+bOqvo7o0sDQCLTukvD+NKWZFlpTHpNExRPiRG4P2fmsmWUw0Z1uhxGY13xSKhcDOAw25dH5ay82VWPMrI0ACQCNIwvWQKglEoQAHUQvd+vXdP4bD8B6vbEkr2huBqKY2xcDL/AGJ0za8kLjCgNAAm/AXgWwAlUIokrr+INqNydXVj1opTDoiKJRf3EnfYQy/oHgONt2la3WCL795tZ9QWjSQNAwmkAJhTf2TNdSJILhWABVK/PnVXzAeVIAiMwoXh3gZRDcZwN2+yvjc7Ovex8PkQiY1AC24aOG7YkF5YA/7ICGJ47s/pYdv7JQ97Mmk9zZ1afoIaxFyAv2uz2BwVSU306ZbiLkaQBIGEbB+oKipA0vOSAtWvOrGqzX0X1Z5QjSY3AjCUf586qOs6wrBEAPrTLfYvqwY2t7fcwgnEYG0pgTxpPKSrQgMGV3glt8lCrYkzNm7XkFYpB/pgakIYJJaYobgIw2Ca3PTF3VvVMRo8zACREsr/daqVC2qhEIjbu0gbBtTlrO4ex8ycbGLlp3sxqb06nFKvKlQDabXDbDzeNLy1h9DgDQMJAw/iSDwHsSSUSqkq+qIZ/KnftI31qC8YVDwWMByB6RJzfalWb4dx7qxmLWxg1zgCQ0Nzbp1QhYfgNkPG5s6qOY+dP+kru7JrlubOrjlRoGYAf4/hWS9Mt//2MGA0ACRFLwAVhicHrTtGdcmdVzaYUJBTyZtVU+tFZDJV7AAnE6W1Oqh9XYjJacTGIJHalYVzpXhD9D5WwLQrVG3K6aq4VHwKUg4ST+gnFu4vK04jPHUN/dTn8u2Q8XfsDI8UZABIEOSktiwHw6E170gnglNzZNVez8ycRmQ2YWfNpjqt1DxG9BYi7nSI37wo4pysHoZwBIMHTOKH4C1UZRiXsNTizVMb0m131JqUg0aBhXOlREJ0GYOv46oFkau7MKq4J4AwACQa15G2qYKeAodaA7M/On0ST3NlVL1uulBJA58RXfdCb6z07DWGEaABIMPVH5C2qYBfkRSslZe/sWVXV1IJEm37TP6/PnVUzDqKnAmiKk9vKNBzWo3wUEKMWiRLYmyYzv7+VkrKKsYzzcb/i2pzZ1dcJoJSDxJqenUTnAyiOi45I9Yyc2TVPMDI0AKSP1I8v+VKAnahEXNawDlWZkDer6l8Ug8QTv47Pz3EiZQbi41jxtUZnZyFPDYwufASQCH2MYiFViEtaYMmJ7PxJPLL5rLrGnFnVo3q2Eo71WwL9AqmpNzEqNACkj6ghNADxx2+AHp47u+plSkHidvAAaN7sqltE9CTEeF2AqJ7WMLFkb0aFBoD0gYB2vIru98pJfPCzYejBubNqPqAUxA7kzKyZb1jYF8DymPZHljyg5eyXaABIr9l8Vl0joJwFiA9+MSwcnj2jZgmlIHYie051lapjbwCvx+4udHjD8pIpjAYNAOkLYjxPEWJOvYoelT2nuopSEDuSN/vLtR2dMgqQ92PWlAE3Np5StDmjQQNAeollWTQAsaVZxDg2b2YNT2gktmaAr6o5x9VyKIBFMbqFzWAZ/2QkomK2SKLQML7kMwC7Uomo06nAMXmzql+nFCRR+M0cnOtISZsL4LBYjGlUrb3yZi/9hJHgDADpDYr5FCEGqquewc6fJBqb+VY25HTKMYDMiEXfZMC4lVGgASC9jqbMAneai3b3f23u7JoZFIIkIuKr6syZVXUqIDdEvWoJDm2YUHo0o0ADQHpB7syqOkD46ln0mscZObOrr6MOJKGzHNDcWVX/ENUzAPij+tuqN/O1QBoA0ntmUYKosCinE2dwb3+SLOTMrnkCKschihsGKbBLY23xeKpPA0B645itrkoAXVQiko2S/OBwiVt8Vdx8iSQVubOrXhbBsQDao9eoyXU6Mj+V6tMAkE259Dm1vwD4N5WIGJ2GFTCzplf9TClIUrYxM6sXKXQSond+wKDGfqnnUnkaANI7HqEEERv/X5wzZ+n71IEkM3mzaipF9MrozQLoVb+Zg3OpPA0A2ZRDH1r9MgQrIQA/YfxAZuTOqnmQGUYIkDOz5jaF3Bql+re5kZJ+DlWnASCbMsvlsESUswDhZUVnqv88ykDIujMBVVcAuDMq7ZroVDVLU6g6DQDZVGVxdk2DoIMj97B8uqAytv+Ty5qYWYT8eSag+i8QTI9CPRzYmKomFacBIJsge1rdGqhWUInQUeCa3FlVH1EJQtYz2AA057sBZ0KxIArTABdTcRoA0qtZAOfNiN5K3URlUW57NbckJWRjbc3Chf6WjPSTIYjwRmQ6vGli0cFUnAaAbIKc6V8uhYEXOYUf9KfJCuhE8SHAbCJk4wx89JNWR5cxCoJvIlkvLTE4C0ADQHqFhRspQpBjDdEr+s2u+YZKENI7suYsWWVZciKAlgj+zPGNEwoLqTYNANkEuTOq/wPBIo7m+/ZRwdu5O9bwTQpC+ki/mVVfWIZxCgQaofppqMPBjYFoAEhvEMFVVKFPtIroGVLO9ROEBGUCpi+ZB8W1EfyJU36cMjyDStMAkE2QM716EQCeV99bwwRckzu9ZjmVICSEdufp6usE8EXo8nlZ7e18JZAGgPRyGuCvEZySS6RPdXZq+j1MGEJCNtKa3dp4KgQfReQxnaFnUmUaANILcqdXfQTgOSqxcSwY58mjn/A0RULCYQJ837dpIOABpCECl9+/6fTinagyDQDpBarGpQA6qMQGBZrTb/qShRSCkPCRN2PZVyo4IyKG3RLOAoRi0ChBctFwWvGdAHfTWg/NroC/KOPp2h8oRXzTekrBNh1OV4GoFoigAJYUwsBWvTB4XQCa//hv0gGxGqHSIIY2wDJWW9DvBPqdMwXfZD5a8xMVDw/1p5U8KcBp4b5sTnPjQPF930aF+46TEiTZILfDeb2kWhMA7U811u0H5EZ2/nEWk6n5qY2tqbtAsSfU2hOQnQEUdAFZhmrPHwEQ7f7foIZA2j0OEkBVANGeUZHA3wU0nFbSDKAWIrVQrYXKMjWkNtDRXrv5rLpGRqn3tPudU9Odgf0ADec7/HmNmdknA5hBhTkDQHozC3B60ThRmUUl/tuHfJfT1FTIUUSM4zBluKvJ3763aOBQFTkUwD4AUuO4+Vyp0A8F+hFE/5PtyPqQ60c2TsvpJbsFVN8Pb1z1pZwnl46kujQApJc0Ti7+NwBWmu4G5LScJ5dOpw7R57cpg3NdXalHQ3Cidudjnp37N4G8o6JvOiCvZDxR/bkEPzeRuAOQ04ovFgnrEcJ+0a6B2dPq1lBdGgDSC9aeXryDQ7EEQFaSS7E4e/ua3bjpTxTt1tT81KYW1zEAJgI4Jr5H+SGV9HsoXlRDns9pNF4VX1Unow9oOYym74oXQnFg2DoyxbnZ02oeoro0AKS3Tnxy8UUiuCupGyOVY3KfrF7AbIg8TWeWlMLC2QodD6BfsnluCOYZFioym2reTPYDphomFQ8VJ76AIj1Ml1yU80TNQaxlNACkt52fCUdTTvG7APZO0ux/K+fxmhHMhEiO9kY4m79bdbIC5wE4gIp0zwyoyjQ1rGl5jy/7KllVaJxcdAlE7gjT5Syn5RiUMW3Jd8wvGgDSS+onFww2DMenAHKTLvkt69DsJ5e9ySwIPz9OGZ6RGWiZLCKXANiRiqy/0xLBa5aFe3O2q1mQbI+h1ISjKbd4EYB9w3NBuSznierbmVY0AKQPNJ1R7FGgIsmKvSjncU4Zhr9RL01pzNOzRK2/AzKAivSaWgHubUsxnhrwYFVz0swCTCkoguX4DEBaGC73Yc7jNXszlWgASJ9NQMlLCj0qWcprCI7IeqzmNUY+TB1/OYzG74rKRIzrAR1MRYJmLUQedgQC92c+uezHJBmAXKXADWG4lCWBrq34NgANAOlj4930Q/F3AAYmSdq/m/NYNZ9Hh4n6KUVHCuRmUexGNcJGJyCzLTFuyHt0yYqEbn+m5qc2tbuWAMgP+VoqE3Mfr57J9OnlQIgSkOYfCw9Ons4fUOBGRj10GqcUFDWcWfyqofIyO/+wkwLoJEMDSxvPLH5i7dlFgxLWjt9X16GKC8PUoXFvE84AkL415CWPADolSYpbnf1ozU7coCUEAzVpUFpjSvrfBLgcCfsOf9zRJdCH1IXrch5Y+muCtkPPAXp8iJf5JXtgzZbc14MzAKQ3jblZmgLoyUlU5LvY+QdPw5SSvZtS0r8Q4B/s/KOKSyEXoEuWN0wpvri73iYWlsN/EYD2EC+zReOPJXsyXWgASC9oygscCWCzJCnumuzONj4fDMYoThnuaphSfJ1A3wFQQEViRj8B7mzqp180nV00IpEKlvdQ7UoFbgvDpfgYgAaA9AZxGGMhQDJ8VOQhmf51O6PeN9aeV7xDk7QuEsE/IHAmS77E90eLVOWNxrOLpzedlp8wJ3t2OI1bIVgVijZi6AjWWhoAsgl+nDI8Q1VPSJLidjoCxoOMet9omFJ8rMOPT5Gsu0XGuX+H4lRNdVU1TikelQgFGvBgVbOKhvRKoCj21CnDXUwPGgCyEbKl9XgIspJjxCTPZz2+ZBWj3jsUkIazS8rFwPMQbMYRdxx/gP4w8EzjOcWPr5lcmG333Mv51fEoRFYGP9OHjAZp3oW1mAaAbARLMCpZyqoqjzPivdRq0qC0prOKnxboNeCbQnZybaenphiLG88pOdDOxRBfVacCV4c2NeLYlwlBA0A21FaUj3AKcGSSlPb7nN+qXmXUN03jlIItmtLS3oZgAtWwJYOg+mbDWcXX23kaPGer6jkAFgfdsYnSANAAkA3RtGr1vskytasi05P9+NXe0HJ+4UA4HG9BZE9Ordv64xADf29ytLy79rziHWw5C1AOyzL0shAeA+zHGk0DQDZYw3BMskx2KALTGPCNU39+4Y6BgGMRgBKqkTCVfE+HhY/s+rpg3oNLXwHwXpBf36H5jJ22ZA7QAJD194vHJscCKXkv76HalYz3RmaDziotMSxjEUQHc/SccJ/+asgrDecWnW9LCyPW34Mtuz81MIy1mwaA/InfppRuD2DnpLA5QCUjvpGR/zlFw9VhvQVgG6qRsLgEcl/jucVP6NR8W+3emP3gsjcV+Cyozk2FbwLQAJD/aQ1c1rFJUtSAM6D/YsQ3MPI/r6TUMOQVAFtQjaRgclPA9WbLlOKtbTULoLguOPevnAGgASD/OyrWo5Pk3f+3Mx+t+YkR/19az91pO4X1EsB3/JPss2/AhY+bzi7eyS65mvNQzXwIfH0uq0EDQANA/tj5l8MA5IBkKKsop//XR+N5RZv7JfAyINtSjaRkoDrwdsPU0r1sU5ch16LPh3hJsZYn3qFJNAAkaFpWFe6UJK//BWA5n2HE/8iPU4ZnQOQFCIo5Gk7qTz9R6+WG80psscVz9gPVVYAs7GMZU5rX6FDWehoA8vsMgGEcmBwFxX+yH168mhFfd/ZnhDMrpdULYB+qQQDkCfTVxql22TlQ7+vzN4QGgAaA/BfLwEFJUtTnGO0/0vzLqtsBHEslyH8RZIvqS/XnFR8R97MAq2ueA/BVH8tHA0ADQP6/PuCAZJjiFMgLjPb/03RBcZkKLuTUNz/rOzzHMPBcwwXFcb05WM9ung/38aAkGgAaAAIADeeW5gMYmPAFVVnZ/cyQAEDjhYWFqniESpCNkCaKZ5qnFh8e13eZGngSQEcfbEM+Q0sDQACIUw9MitG/oc8z2t38OjU/B2o8C0EOR7v8bGrRnCXwNV9YGLevz+XcUfuLAvN7XyaLMwAbwUkJkgjVfZPhcFcLxksMNqCANBmuaVAUJmgRWwCsAbAKgl8AWQNF55/+ZmvA2h6QHQDkMSs2SZ6lxoK1FxXt3+/upV/H4w06RB6zoJ5eDnsG6tT8VLmvroOhpQFI9vme3fr6Jq0NaW9pT3ubwQaapxafDcUYmxejDcBHgLwrwOdiSG1A8G1Obv9GKV/o7+tsSCpSdwwYgVKB7KqK3QTYFdwJ8c8MdFjyctPU/AOy76tbE283l3lv9RtNU4vrIOjN9L7RgLRtAaxgWNdjjyhBkowGpwx3NaW3NgJIS+xJDryWe2/NEcke798uLN3eCWsJgGyb3XoAwLsAXlDI2zlt6Z/Ko590RfIH6y8uGGxYxmEqcrgoDqUh+G9t+qi9y3HogAermuPtzhovLLoSkJt61cmpdWj2vcveZDw5A5C0tKQ2lQiMtIQvqOgrjDbgROARsU/n3wHgBYE8Z/n1xZwHlv4azR/Pu6t2JYCVAB7Tchit9cW7WrBGQcUEUJTEabRnuivwL50y/PhIm7C+4vLLHL9T/9mbQayIsR1bBBqApMZyGLslw3SPYdAANF9cdKoqjraBW6sR6OOWw3o6547aX+LijsphATWfAvgUwNXNFxYOU8MwoRgL6JAkTKejmtJbbgFwSTzdVPoDNd80XVT0AYB9NzmPodb27AFoAJIakaR4/r8q887axUnd+V9WupV2Be6M53tUxUsCuSn7npq4X6uRdc+yxQAWazmuaVlbdIQKzkX3ZkqOJGo7Lm66sPg/2ffUVMZZIlVAZN9e/OXWIOsfMFGCJEFl9yQo5buCJLA5Gwtzl3UPgM3iteO3DNk3556lI+3Q+f95ZiDrnqUvZ9+99ESnQ4aI4mYADckzgtDHmy4uKY2rzksMHwBr002f7dbB0ACQMDa85TAgukvCv/8veC+Z49xwYcneEDXjMDZLoXJwzj1LR+beWfOB3XVOv6Pmm6x7lv41kObaEZAbIWhKgj0CsgBr3q9T83PiJQ6Zd9f8BMHbm24XJIu9AA1A8nYMzYU7AInvgi3B+0ldmQ3rJsTXmz1dULkxK7d9N7uN+HtD3s1frs2+u+bvaliDRfRWAK0JnmIFKS7HUxpPOaaY14u/oQGgAUhenAEUJsEIpSO7y/9Jssa4+dKioyA4JH5mY+RDcege2XfX/F3Kv25PZO1z7qj9JevOZVc4DSmByLMJXc8go5ouLboiXrR3pPifgUA3es8OGgAagOSOcmESlPKTZN3tSwFRxU1xcjvNUEzNzKnZN+v2ZUm1IDP9jppvsu+sGaXA8dLXU+tshChuaLykaL94uJeMW+u+F8WHnAGgASAb7iAKEr6Miv8k7ej/4mIPgN3iINEWa0D3yL5r6f3dr9MlJzl3Ln0hU5tLBXorkJA6OATy9JrLC+PisaIl8sxGDQtoAGgAkpuEfwRgGPgieWux/i0OFmC+kJWbuW/OPcuWsboBctf3bVl3LrsCikMh+l3i1Tkdku7HXXFh/h2Yt9Hjjg0aABqA5CbhZwBEjaR8/7/p0uKDAOwcU+2B6ZnZW42W8k9aWdX+SPZdS98KuFJ2AcSbaGVTkdMbLyk6Ltb3kXtbzXIAX274RvkaIA1AkvLzX4ZlQmTbBJ8B8Gd0dVYn51AT58V05A/cnHnH0sl9PZgnmci7+cu12XfUeBRyJgQdiXX0Nh6Ki1cDRTd2RHCalpemMBNpAJJvBGL5C5D4hz4tTcYFgC0XFW8N6OgY3kJ51h1L/5rsmy/1lpw7ah5X4BAAPydQsbZNSXXEfAGqZRn/3th/b+oIcBaABiD5sAxN/DcAZCPTf4kcW4eeCcAVmwEXbs6+fem1rGF9NAG3L33f6XDsDejnCVQBz268rHD/mOqaU/MhgA2eJ2F1aQ6zjwYgCdHE3wNApSbpolo+wgkDU2Kit6F3Z92x9K+sW8GRfkvVty1IPUAEzydIHTQEuF/N2J2PIOWwIHh5Q/foBNcB0AAkI5L4ewCIYa1MtrC2tPx0OIBtYmA9KrNuXXYJK1ZobHX74pbMhsyTAK1MkFq4a9Og4tNiegeKDT4GsBycAaABSFYDkOAzAJYlK5MvruKOgdafZWVmTeYz/zCF8NFPurK+XjZeBNMS4ywOvSGWCwItF16GILDe14QtI4MZRwOQVNRfuXM/QeLPABgpzqQyAFpemqLAqCj/7GqnOEbxVb8wmwAfApm3Lj0digcSoDhbpqY7r4zVj+fctPRXAOs9c0Itx/fMNhqApGDN5YXZTZcV/t1hda5UIDOxJzjQkvnPJauTKb5NLYEjAfSL5uAKBjzpt1R9y9oVkRzWrNuWTlXgqQQozgXNf9tpy5iZY7GuBvDnN4Lez7qjqoaZRgOQ8CPD5iuLLk0TWQlDrodIXqJP/yvwVdJNSTvUHd13/eWO7JuXLmQNi6wJyK7PPFOh/7Z1fRRkasB/VcxmAW6pfceCjBADL0CwVA08BYf/RD622mDekUSg8fLiUSJ6G4D8JEvhZ7NvqRmVVCavLbAGQLSetX6Z1erfM1kPWoo2P/9lWGaWo/N1Bfa2cTE6nH4pTL+j5htGlDMAJJId/18LipquKHxNDH0GgvwkOPb3TzMAuiKZ4t3UoXtDkBMlfTsF1kR2/tFjq9sXt1h+6zgYssLG9TLV77IuZzRpAEikRoJThrsaryy+QtT4HCKHJasOAq1LqvKqdWj0fkvvzrql9gvWtuiSc0ftLyLWGAA2XnApk1v+Vrw1o0kDQMI+6i/cv3mzlsUCvRlAajJrIUi6VwAPidLvrOpID9zI2hYbsv65bLFCp9q4CGlqWRcykvHefhL7jPrLS1NaOgLXKnAZELtdt+IJSx1Dc2+uSopZAL142/TmtKy10TB9qnJmzs01jzPDYkvzlcVPqOhku45VOlP9221eXtfISHIGgIRA0xUlpc0dgQ8VuJKd/3/x5/yWljQLjVrSc/ZDdGZ8Fmen1TzJ9Io9mR1N5wOosunt56R2Ok5jFGkASCijgKuKxorD+g8EuyTbIr9NfBrl0U+6kiUPFIGDo6Or3ijlsFjzYo/c9X2bBeP0De1wF/+LdOV8LWc/QwNA+t7gl49wNv+t8GZVzE70DX2C6xDRlFSdgchuUfiZuqzly+Yyu+KH3Juq/6OKe2x6+/mNncUjGUUaANIHWi4vHNjc+fNChVxBNTbQIQItSeZ4SqNgqm4UHwLMrvgiOzXzH4DY8pVXEetcRpAGgPSSpquKD7Jc8gkE+3OaHxvZoS55ZgDWXF6YrYJBEdb05+xfMmexBsZhJ1r+SatAzrJnPZWjWsvzt2UUaQDIJmj8e/HpgL4OYCuqsYnRqmhzspQ11SE7IcJv7YjIjGRaU2E3sv5Z/bpC/23DW3cEOh2nMoI0AGRjnf9VRX8T6GMQODnC78XIwpCkOZlOnNg58gu2/NNYC+O8wVb8FQLLdvXVME5TvnZOA0DWM5Ith9H0j6J7RHAjWEl6r5sm0wEfWhzhH3g/+4blPDEt7mcBli1WYKYN83dI0z8K92MEaQDIHzr/0pRmf9FMKC6gGmTDiWIMjLCbqqDI9sClsr4jb+MeUfEwejQApIfV5aVZLQH/8yI6VkTBT98+kOSZABBDt4qkli6XvsAaaQ/Sb6z5BqIzbFhnT1aTm5jRABDoxdumZwT8LwA4kmqQXozQt4zg1WvSymtXUmQbpYND74D9zrjfurm48CBGjwYguStveWlKS3aWD4KDuZgvhE8yIdg6cgu08Dxrpb3IKa9dCsELdquzBnQ0o0cDkLyd/5ThruaAvxLQY6kG6Z1hHJQGICdi3kJ1IVW246SQ3GG7e4Ycx8jRACRnhTXhaNm65WkRjKIapLe0IDMvktcPGPiIKtuP7OuXvgXgc5vd9o5N/ygpZfTiAycliJbzhbSUFD4KaBlf9AvX0DVJitlpiboipuFXOeW1vzCZbDuEewqKXe1VbQPHwb4nHHIGgPSd1qsLrgYwmUqQOONDSmDngYV/NgT22r3RwBGMHA1A0tBUXuhWQ67hwj1wIWAwZEZUw/dZQ+1LdvmK1YC8YrM6u1/PuhZCA5DgI//ygr0EmA7u8Bd2BMr8DVlELgC0/SyAWDNsdsvpzUjbh5GjAUjszv+GIdtZkPkA0qlGJAyA5FGFkPBnFtUuoQz2Jisj7QXYbmdAPZSRowFIXFdePjzDCjifi+j720n+UZHNksjtROLzo7gRYG21eWpctrgFhiyy1UFegr0YORqAhKUFzfcB9lqdaz+szalBSNRTgkQZceAlm93xTgwaDUBC0nxtwUQYmMxReqQ/nAEIcQdAkij9vxgv2az+btNQXroZI0cDkFA0lhcUiciDVCIquNbcUpid6IUMdAW6GGqyMbKvrq4C8J2tOh9nJ2cBaAASyIXfuW26YYhXgSyqER1SOo2tEr5xh6sRQCejTTaOvGuzaYudGTMagIShuTXzTgh25tR89D4OC4MSvlkvr+qE4POwL6KEtrLWJlRr/onNHuFxBoAGIEE6/+sLDhfFWVQiyp2jERiUHCXVmrBrB3AL4ETKkIB+YqvOR7kQMNbwLIBwVLzbhmU2d3Q8ItzsJ+pYSPwZgG6jIys0zKe/q4ifGZQ4dKV2fZrid1l2GdgpsLMqRATK6HEGwL6j/86OOwQYTCVi0DECOyaH0dHlYddOkcEMShw2u3JlA4AVNrrl3LZr87dh5GgA7Nv531hwmCimUImYjSKSwgAYKnURuOyWzKAEqw9ir1P2LJeTRwPHED4CCKWy3bltenObPCrCqf/YzQBISTJMI3Y4u5anBMJ+JvAOzKAEqw+KOnu1RlYJgJcZOc4A2G/035Z1Baf+Y05Oww35CR+Dnundn8J82bxfy/NzmEIJZABEltvqhlU4A0ADYD/qr88fItArqETscYhz1yQp6qJwXzA1zdiRGZQ4WJbW2eqGBcMYNRoA2+F0GHdDkMZ38ePho7slQ86poW+FXTuLDXBimWH/cpvV3905C0UDYCta/ll0HCDHUYk4GUQYkhwzAGotjIB4uzGDEodmf9pau3mWzFRjC0aOBsAebbAXDhXcwlF3HH2gw1UTfyFm1l/raiBYHWbtdmetTjRHbK9Ph8PhYNBoAGxBa13hJEBLqERcsVXzTfnFCd+uC1QEb4f5snvovfmpTCFCaADIxkb/d26broJyKhGPmew8LClyEHg2zJfMbGlzHcQEIoQGgGyEls7MqRBsy2l3xONjgEOTIQfbBM9C0BZW7VSPZu1OIGxXdwkNQLyPvG4blgngMioRt23eCPUi4Z8l9r9iWZMIXghzdnNBKyE0AGSDo/9A5zkQbMHRdtx+8lpXFCTFgjYLUhFm7Qoaby7aj7WcMwCcAaABIH8eH925bTpEL6UScd4xipEUI9mstvZ/Q9EY3oZAT2cGEUIDQP5Ec1fW6QC2ohJxPvARHZUU5Sz/ul0MzAqvdnCvuaUwm1lESPLAw4A2Nfovh9Eq1kVUwhYMa781f0ja5XUrEr2gDofcHQhYZ4XRxGelA+cBuJlpZF9cuS1O6Uqx1T3zHVTOAMQtrekFJwAYQiXsgV+NpJgFSLt0aS0gL4Z1FgD4y6/3cltWW+eFP7UfVSA0AOFqFA29kAvs7PMRA6OSJTctkTvDrN/maZ3GRaz1Ns4JI5Bnu3rr7FRGjgYg7mi8vaBIISOohK3Yr+WWwoHJUNDsy5YuBOTTsF5UcWmy6JeQBsBy2G4GQAPOACNHAxB3OFUmUwX75bQYWpY0pRW9PsxXzIGBe5lG9sShlv0eAQS6aABoAOLMlT4y3KWip3Ba3X4fNWR8suRp5l9q56vg7TAfr3xSy235x7MVsGG7JbKZ7eprCmcAaADijLbGpuMAbEkl7NgK6u6NtxcUJc0kgCGXAtAwX/TBhjtLN2My2S75t7PbHfstdDBuNADxVY0MTOZo2r4fB5JoFuCSZR+L6Owwa7itUzunJcMxy4llBjHYZnXVyt6+di0jRwMQN/x28+BcAEdSCTu3hDpOy5Mnv8UZ+BuAtjBf9YS2OwsvZDLZaOCixmB73TDWiht8BEADED+kp6b0C39jSqLM4JasoiOSJmcvXPmtKK4Kf/ust7TdmX8w08k2xtdWBkAFvzJoNADx1ZhevPRryzBGQdDB6XT7fkSss5Mqb5tr71GRt8KsY4olxjNNdw0tZssQ553pA6VZEGxprzoqNAA0APFH9sVLFwrkFAAW1bDraAjHtd6bv23SFLccliOA0wRoCvM0QD9D5d8tdxVvzaSKX1o7/DZc+Ko0ADQA8UnGJcu8YujFHE3b9uNUv3FmUs0CXLbsKzVwaQS0HCQSeKPlPm4SFL+tuTXchnX0NwaOBiB+TcBFy++F6D+ohG1nAc7QR4a7kipnL6x9HCpzwz5WUxTBr2+13jFkOyZWHGLJcNuN/4FfGDgagLgm86LlNwC4iUrYkoEtrY3jk6nAItCMVOckAIsjcPl8NRxvt99TPJSpFXeBt50BgGINAxfL8RHpNc13Db1bRPhalP2SfFn6wNrSZHvdqO2+wh2tgH4IYIsIXH6NWDgu45LaD5lhcdCP3puf2moZjQBSbFY7P+1KSTk879wvuRcAZwDifibgYoHcRiXsNshAYduPBScnW7nTpy77ylLDBNAVgcv3VwOvt9zJLYPjwuz5jV3s1/kDgO7u6up4q+2+wh0ZRRqA+PaqAs24aNnlEP07F9jZ66OCvyXjrnbZFy9dCEPOhkAjoGsWHMazzfcU3KHlpSlsIWKH5dCDbFs/gZ0tSz9svadoP0aSBiD+ZwIuXH6jKKYi3Puvk0gyrPXewhOSMl8vWPakKC6IUL6KAJe05nW923hf8py/EHeDE8gImxdhC4X1SvO9BYczmtHMGxI0zfcUnCrAEwAcVMMWLM7Yunb3ZN16tPnugktFcHsEf6ITwB0Zac03yFk/tjLdooNOG5TW2piyBkBWAhSnA2KZmRfUPc/IcgYgrsm6sPYpEXVzx0DbfIa1riqclLT5elHtHRBcFUF9UyD4a2tHVnXzPQUT1UtjHA1am5xHQJCVIHU0FTC8bfdy+2nOANhlZHVv/pECY26COPBE56cMh6tAzqtqTlYBWu4tPAfQewE4I9y4LLNEbsj8desKKV/oj/lIubw0pXXzrjMAHAvFllD5WqD/Sr+gtlLEvo/zWu4tmAYg0YxtvVpycNZFyxaD0ADEvQl4sHCYWPosFIOoRpyjuC7zgtprklmClvsLjhGgQhXZUfi5H6B4QhyBxzPOW/FdtMva9NCQAUbAcTYU5wDYaj1/8u8MtcbIBXW2O5e+x9T8DKBfAqbpj4bf2D/94qVfs9GiAYh7Gh8p2MLoxFwBDqIacZ32reLUgoxzan9IatP6wNBdxZIXAGwTpZ8MCPAWFM8A1vyMC+q+j1jHeOe26a2ujKNE9GRVOQlA2kYzQnBpxvm1d9pv9D/0WIi8kMBp+nlGVue+ctrX7Wy3aADi35E/MtzV2tV8H1TPohrxPAmAOVlTa8cluw4tdxVvDWfgaQCHRz8EWKzQhQLjjYDIuznnLw36YBhVSMtDhTsblh6uisPRbcIze90QCt7MOL/2UNvF776C6QBOTfA0fSxzau0Utlo0APapmPcXnAfgbkT4OSsJoQcS66is8+peSXodymG0bF74FxG9AUAsz034CoKPofISDPli4w2X34WAYztLrEEGjF0VehiALUP47Xczz689wFZxuzc/tdUwfgaQl/A5qjIxa+qymWy1aABsQ9N9hYcaol4Am1ONuKQuo7N1mFzyfRulAFrvLdhLDcwGMCTpGkLFzRlTa/9qq0HGA/nHQ43nkiREzZboXtnnLa9hTQ0ffA0wgmRPXfaGOLCLCN7kK3hx+clvTc28ipnaTcYFtR9muJqHCXALBF1JlAc/BtS604bN92lJFKMsA1KhXu44yRkAu01flcNoGVBwhSiuRWynWMn/BAedluiuHFn8afbq/vxSEeMhAQ5M8KLWBERG55y7bJm9Zmvyt1WH8RWS7xFjeeZ5tdeyhnIGwD4uqxxW1rm1N4mBAyBYQUXiygKnGDCe4KY1f5q9Or+uKvPc2oNVMAkq3yak9RM8ntGatqfdOn8AUIdMQTKuL1L8remh4p1YQzkDYEvWPFGYndGhtwPgqta4alfwt6xza2+iEuvRxlua0vpL1yQA5QC2ToAi/QTI2ZnnLrPl83N9ZLirNdD0NYCBSZqS72ScU3uQnTdvogFIclofLDS1eze2rahGXNChkL2yzuXOYxvseG4bltmS2XG+QC+waefTAtU7W9OM2/qfvqzJtm3HQ4VuVa1M6o5LxJNxzjIvayUNgG1Ze9egvJT0lFugOJOxiAu+yNjctZe4qzopxcZHoG1W00kKXAhgHxvccjOgM2A4r888q+YnW2uvkNaHCz4EsEeSd13fZrS1FPENHhoA29P2SMEBloVHAJRQjZjzz8xzavlmQG+H1A8U7AkHToXCDaB/nN3eB1A80ZoqlXYe8f9B74eT6tW/TXVel2ScU3sXlaABsP+oylua0v5L5+UquAqb2LaURJSAWNYR6eeteJNS9CF/y0c4Wwf8eIQIxgI4DtBY7U3/CwQzA2o9kX3OiiUJpbFC2h4u+AjQ4cw4AMCq9Mz0IXLK4hZKQQOQGLMBjxXuqAHrRgBljE/MasWPAZfumj25bg3FCMbMwtG2dugeYuFwBY6AYF8AKZGMlyhesKAvZHTiFTse6tOr0f+D+SeIIc8yw/6QbVdmnF13C3WgAUisyv5w4R4C6zYAI6hGDCqG6oK0s+uO5UrjMDTRjwx3tWhTiUOtYSqyswClCh0AyJYAtgCQ3ofL+RWoBfAhRD4GrPczptR9luhxUoW0PTL0EwC7MaP+UFN/Tu+0BiWq6aMBSHYj8OjQ46C4Rbg+IBZcnnHW8tsoQ4Q7t3IYUg6LSmyYtkeHTlLFNCqxPrOOyelnL6c2NAAJ2kB64WhfWzBBoVcCKKIiUaNLIIemn1X7DqUgsWLttEF5qZ2upQjtsKME7sT0y7Qpdbtwtq7vcCdAOyS4G4H0s2qfSv9peSlUTQCfUZWo4FLoM+2PD8mnFCRWpHa6rmXnv5EBEmTn9ofzD6YSnAFIjoRXSOtjBUcL9G8ADqAiEVe8tstI3Tf3jKrfqAWJJs2PFQ4z1PoEPFZ8EyZAn86cUncqlaABSCpaHsnfHWKcK9CxADKoSMRqytvpbXokFxuRqHVq5TDaBua/Dcj+VGPTTWG6w9haEmS/h2jBRwA2J/Osuk8zp9Se0eHq2gaGXgLRWh7zG4EPcFBbuvG4Kk0ziQ5t2wy9FCL7s/716pPZbgXczBrOACT3qEEh7U8MPRCK8QqcDGAzqhJW7s44c/nFlIFEkubHCocZsD4EkEo1et32vZI5ZflRVIIGgKDnFLeGjpECYzygx4KPCMKjK+TazDNry6kEiUh+3Zuf2pYuHwIYRjX6RFeHs2tAv9O+rqcUNADkD2Zg2/TW+vTDDENPUMhxSIxjXWNYc+TSjNNr76QQJNy0Pj70NgB/oRLBVEudkH563SwqQQNANmQGymG0ble4u6h1qAgOVcUBADKpTN9kVMiUzDNqH6cUJFy0PD70WAGeA9dnBduj/Svj9OUmhaABIL3tyR4Z7mpz1e8JyN5Q2QvAXgB2ZH5sEktUz0w/o+5JSkFCpf3JgsEW8DE0ZgcpJcIUwNr0b2u34M6SNAAkFFPw9LDMVn9roWFJkQWUiMhQwNoGkOHgaYV/nAlQPT/zjLoHKQUJOom826a3Naa/B8GuVCPkCrl75hl13CytF3BzCbJ+Z9h9xOanPZ//0vbE0H8ocB0VWmfMIfJA25ND+6VPXn4j5SDB0NqU/oCw8w9PhTQwAtwttVfwORPpE2nZbbdD8DXfO/7jR4Eb2p4cehUzhPS5838i/yIRnMZ6FKYPZASzigaARMJdu79vg+jlVOJ/UeCG1icL7tRy1ivSy87/yfyTIXIHlQgr+1KCXrbnlIAE1XBNG/omADrt9TuBZ9Kz2saL+/s2ikE2RNu0ggMV+gq4piYCQ1vZNuPU2h8oBGcASASwLLkIQIBKrNdWj25rSX+z6cn8/hSDrI+OJ/NLFDqfnX+EPHhAd6MKNAAkQmSdXvuFKJ6gEhtkb4fgnfbp+UMoBfnjyL9oUEBkAbhNdyQ7tl2pAg0AiSBdaXIVBL9w4dGGPlJgQf7TPj3/SGYLAYC2pwt3VMNaCMH2rB8R/WzLbKMBIBEkZ1ztL6K4kEpslM0tyL/bpuVfyZMEk5v2JwsGq2UthOoOVCOivJCWmcKtlHsBGyQSMq1PFcwH9EQqsQkUz7d3BCZudtbKBoqRZCP/aUWD1Ai8CWAQ1Yhoj3ZvetryS8TN9Uk0ACQ6BuDJIdupw1giQA7V2IQHUFRbUHf2pLoqqpEcNE8r2tkwAgsAbEM1ItSRCRrU0ikZk+q8VKP38BEACZmMySu+g+qVVKJXDVWJQ+Tj1qeGXshHAkkw8n+68FCHI7CInX9E+Y9YOpydP2cASKxGtuUw2oYMfROKg6hGr3kh4NfJ2ZPr1lCKBOz8ZxScoqqPAUihGhHBryo3Zmw/8AY5ZKGfctAAkBjS/lRRgSWBT8GjhftSBX+2YE3KOqXuZWqRSCP//KsVUs42NmIssgzHeVkTln5JKWgASJzQMmPoWQI8TCX6WhPF5zdwbs642l8ohn3RJwqz21yBxyDioRqREBi/QXBd+orl9/HIXxoAEoe0zsh/BpBRVKLPrILKRRmn1FZQCvvRPLNoZ0P9/wKkgGqEnS6IPtrR5f97v9O+rqccNAAkTqmftX2/lEDqFxBsRzWCqpT/huE/N338V99QDXvQNjN/gqo8DD7+CjcWROYa4r8qbfzK5ZSDBoDYgPZZBYdbqi+Db5oES4tAb01rab1dzvqxlXLEJ795B+emdjruFmAS1QivpxLFDLEcd6SdurSWctAAEJvROmPobRBwR67Q+F5UrkpbUTuTzzzjzOTOzD/SgjwOcKYrjHwr0Cf8KXgo2823Y2gAiG1Rb2lKR1fHewoMpxoh8zEgl6aPX/42pYhxXj9RmN2eZt0O6JlsQ8MzVgAwX0Smp9Yuf51GlwaAJAhtc4oGwfJ/Ap58Fq7u5zVYjuvSJ9YuohYxGPXPzj9eVe8FZBDVCIk1AF4wgGdTmltf5WMuGgCSsI3mkKNV5UVwPUA4a+5CBHBt+sS6hRQj8nTMLiiyLOsuCI6mGn3GArASwPui8p5Y1jspK1dUc6RPA0CSZiYg/xooyqlE2GcEFonI7anL6l5ggxoBdb2Dczv8xtUKTAXgoiIAgFWAfgk1ckXUAAAFAlD8CsFvCvlNFGtUdJnTMJa52jqXyWlft1M2GgCSrA1pOYz2gqHPA3oM1YgIKxV4IN1pPSFunjYYcr4+PzCjrSn9HIFcDmAAFfkvfrVwYMaEug8oBQ0AIb2mwVu6WUqg42MAO1KNiNGsgqcd0IdSy1YsoRxBdPwtGWeL4nIAW1KR/+kyrk4fu/x66kADQEjfe6dZQ3d1GLoIQBbViHjl/hSQp7ocOoevVG2c+lnb90sR12QRuYwd/wbt0aI0x4pDxI0AtaABICQo2iuGHqeq8wE4qEZU6FJgAVSeTs9uWSDHc8X177TOzt9XRM4C1A0gnYpssKNYqw5r13T3ym+pBg0AIaGZgDlDL1DRe6hE9Ps8EXlZYT3b5XK9kDNm6a/JJkCDt3Sz1EDHWEtkikCHMSV6MfZXmBlj6/5FJWgACAlPT1SRf58A51OJmOEHsEiBF5wwXnd5aheLQBOyA/Num96maccDGC+KowGkMPy9FQ+PpY+tm0IhaAAICWOjDEe7DnkWKsdSjbhgDYA3BPoGIK+nldWtsHd+lWZ1Wh2HWSqjIToaQA5D3Gdq0jJb9+BjIxoAQsLfSD8/MKO9LeNVKPajGnHHzyr4WBSfCPBJp8v5Xrw/MmifWzAYgcDhFuR4URwBIJVhDJoOy8K+mWPrPqMUNACERITGeUWbu7r8iwAUU424xoKiVgx8qRZq1NBqh9+qSclzLJNj6jqifTOtc/O3NQLYXS0Mh+hwQIYD2IphClPnIHJRmns51+nQABAS4cZ8zpDtxCHvgier2ZEAgK8BfAvFdzD0G1j4Tgx8LyLfpljW98FsTqSPDHc1ZK3JSnelbO1XLRAxhopqAQQFPWaxP6WPWMcwP9WsG5Ooa0IIDQCJMzq8+SUW8DaAzalGwtECYFUv/zYP3ftEcKFebKhJS3XsLScua6IUNACERI1279AjFPoKlSAkJjQIHHunuZctoxSJj5MSkHhCoVvRlhISm+qnkMnpJjv/ZIHHs5K4QoATqQIhMeHaDHP5PMrAGQBCoj/8+Hd+ansrjqQShES57gHPpy+p4yE/nAEgJDZ0tFqHAcimEoREtftflm5ZE6UcFrWgASAkRqMQYxRVICSqrBHo8cG8pknsDx8BkPjo/MthtAuOpxKERAlBo2XhqMyTVy6nGJwBICRmdA4bUgLu4kZI1KqcQE7OPJnb/HIGgJBYzwCosT+Em44REgUsFUxMH738VUrBGQBCYm8ABPtSBUKiYbZxacboOi+VIDQAJF6aJZ4GSEjEkRszTqq7mzoQgFsBkzigyZvf3+nCKuYjIRG02IIH0k+sm8oDfghnAEjckOLEfuz8CYlg5w/cz86f/BkuAiQxxxLsxu6fkIh1/w+nn7jiAnb+hDMAJA6zUAsoAiHhR4Bb0k5ccS47f0IDQOKzkVIpogqEhHfYrypXpI2qu5KdP9kQfARAYtxKQdqfw1AqQUjYCEBxdsbo5Y9TCkIDQOKW9hcGbwcgi0oQEgYEv4lgbNrxda9QDEIDQOK7vbIchcodAAkJGYUsNgwZnXZc7UqqQWgAiA0arcB2wlcACAmxHqEyPTXjdDlqcQvVIDQAxBYYBgYoJwAICZaAQK9KPX7lrVzsR2gAiN1GLv05AUBIMHVHfhNgbOrxK/i8nwQ3AKMEJJYIpD9VIKSPnb/iY6hjDy72I5wBIPZtyAQDqAIhfTDNihmp7R1niXtFG9UgNADEvgYA2JxPAAjpFU2iODP1+BWVlILQABD7j2aAdKpAyCapEUvM1BPqqigFoQEgieIAUigCIRs1yTNSrLaz5YQfW6kGoQEgiYSLEhCyIfTt1GNXnkIdCA0A4QwAIUnV/0snRSCRgq8BEs4AEBK3BlktikBoAEiiwgaOkA07AD73JxGDjwBIrEc4reBWgISsF1UaAMIZAMIRDiHJVztEf6EKhDMAJDFHOIJWjv8J2ZADwHcUgXAGgCRo+6bczpSQDdUPC99TBUIDQBK1iaunBoSsHwtKA0AiBh8BkFhPAfxMEQhZP37LWEYVCGcASEKiIjQAhKyf77KPqVtDGQhnAEhiTgAoVvEtQELW547xKUUgnAEgiWsARH+iCoSsr/+Xz6kCoQEgiWsALPmGKhCynroBfEIVSCThIwASU1xZjuUdbX4FtwMk5A8TAH6X/yPKQDgDQBJ3lHPAsiYAq6gEIet2/6jOOuRrLpAlnAEgie4CtBaQrSjEH/jGsjDe6UR7ICDHi+hxAHYHZ0qSpE7gdYpAaABIMrR2SwEcRB16Bn8Cb5qlU+TIlQ09//QJgPK2NwcNEr/jeECPg8gIAClUK2Gz4FVqQCLvMwmJMe2vDj4HIg8mfZMP+Q2Ci9IPq5uxyb99pzC7s63rSIgcr4JjoOjPTEqYTGhJzejsL/t9z22yCQ0ASWxa38zfx7D0/SSXYZ7fCJwXzHNfLYfRdnD+XobqgbCwPwT7ATQENuaZtMNWjKEMhAaAJP545/mBGR0Z6Y0AHElY/NUiMjX10DpvOC/a/saOhaqyn6HGASrYD9AiZppN6gPklN7MAhFCA0ASgvbXhyyGYOckKnInoPenuvw3yIHfro30jzW+WbBFimXtDtFdBNhZFTtBUAquI4i37r8lNcW1dc/bMYREFC4CJHFiReUdQJPDAAieAXB52iEr66L1kzmH1P4C4JWeT3dX8+YIZ6d+XwjRnS3VYQIphWJHCHYAkMOkjMXo35jPzp9wBoAkFR1vDilTxZwEL+anCrkk/dC6t+K+I1q0fb8uf+oOqrqDijUIih0A2QHAAAB5APoBmgdIJrM3nMLLUWmH1b1CIQgNAEkaWl8v2MYwAol69vlyVdyQ9vaKmVIOK6H6q4+Hu5pbG/JcauUZijxLkRtCc1QOYP8k7v2/Sl2zcqi4EWCLQGgASFLRvnBIFRQlCVS7VsLCLamy3ZNyyEI/I7xxmt8ctJUTjs8AJOemUILL00asuI2ZQKIF1wCQ+Gn/VJ+H2N8AqOBdCeCulBErnxGBBaxgcHtB1iFf/9y+cMdTBPISkm+b8rYUf8qTzAISTXgWAImfZFR53sa33wWgQoC90g5eeUDqoSvndnf+pC+kjfjqVQiuS7Zyq2K2HL70V2YAieqgixKQuGkEvXB0DBj8k9hrE5taQJ7o0sDTPLwlbJ2h0fnW4OcBHJMkRQ6opaVph361jNEnNAAkael4a8fpgJwa57dZD8V8A/qk8+Cv3hGBMnJhNgEvb5nZmZb5OoC9E7+wqEgdsXIso06iDR8BkDizpHH7GKARipmqekJKi7FV6oiVp7lGfLWInX+E0uCoVS0pXSnHAqhO+O5f8E9GnHAGgHDk99626Z3+lB/R/a55rKkTyEuW6oJUy3pDDvm6nRGKLq1v5m/rcFjvANghQYs4N/WglScz0oQGgBAA7YsGPyyKs2JQGVYr8J5CX0fAeCntkBV1jEYc5MM7OxZKQF6HYJsEK1qXCnZKO3BlLaNMaAAIAdD5zqB91DIifTpgF4AaFbxvQN6zLH0/7eCVy6l+fNL27o47GAF5GUBhwjS+ggdSDlx5PqNLaAAIWYeORYOXACgNw6WaAHwLwVJYWg0DSwBHVUpabq3s8UkXlbYP+nZ+/05YL0KwZwIUp6nTkPzs/VesZmQJDQAh6xqAd3Z0Q42LAXWttzOANItoMyxtVkGDCBpgSbNAf7IM43uBfJvixHeyT10j1UwgE/BmaVaXs22eAkfYvChXph648hZGlNAAEEJIr03ACGdnyrc3QHG5TduwJSlp/XbnDBShASCEkCBof2fHEwTyNBDKAURRxzIsOch10Ip3GUESa7gPACHElqQd8NVzMKx9YKO9AhR4jJ0/oQEghJAQSd3v66UpRuceIrgTAgsCxPHn+9Qu60pGjcQLfARACEkIOt8ZtI+KMQ1AUTwO/lXkmLT9VrzESBHOABBCSBhJOeDrD1Kkc3cAt0LQGU+jfxHczc6fcAaAEEIiTPt7Q/IF+CegZhzcTnUKOveQ/b5vY2QIDQAhhETDCLw/+HBR3AFgWIxuoQ2G7pO6z1eLGQ1CA0AIIVFEFdLxwY7HCeQaAMOj2sAKJqfss3Iao0BoAAghJIZGoPP9IaMg+lcg8tsJC+T+lH1XTKXyhAaAEELihM4PhgxX4EJAywC4ImA33k/JzhghpVWdVJvQABBCSJzR+l7BNg7pmgSRUwAUhOmyP/idgT0z9/jmJypMaAAIISTO6XpvyH4Bh04wFGMU2DLIyzSK6EEpe3/1BRUlNACEEGIjVGH4P9xxf4WMVuAoACW99RBq4Ji0PVe+RhUJDQAhhNicpneHDEhxWger4HBROQLAjuvzDQI5LWXvFU9RMUIDQAghCUjrh0O2M8TaTSC7AdgVimIAT6XutfImqkMIIYQQQgghhBBCCCGEEEIIIYQQQgghhBBCCCGEEEIIIYQQQgghhBBCCCGEEEIIIYQQQgghhBBCCCGEEJK82PYwINM0+zscjqGqmgUgV1WzAWQBSAegqlpvGEajZVlNDoejUURq58yZs4ohJ4QQQmxgAEaOHJmalZW1j4jsJyIFlmUVi0gBgH5BXO43ANUiUg1giWVZr/t8vmqmASGEEBqAGFNeXm4sXbp0T8uyDgVwKID9e0b1keIHEXnVsqxX/X7/y88888yvTAtCCCE0AFHCNM1CERkrIhNVdXCMbqNTVV8xDOPp3Nzc+Y8++mgXU4QQQggNQJiZOHFiZmdn56mqeiqAveJMm58AzFDVB3w+37dMFUIIITQAIXLCCSdkp6amThaRKwFsFecadYlIhd/vv37u3LnLmTKEEEJoAPrI2LFjtwgEAhcDOA9Ars208ovITL/f/08aAUIIITQAvfwdj8czUVXvALCFzTXrAvBQe3v735977rkmphBJJEzTTHc4HHtYlrUXgF0B7AhgEIAcANlh+Il2Vd3e5/OtodqEJLgBKCsr282yrAcB7JNg2v0gIn+rrKx8mmlE7MykSZPS2traTlLVkwAcCSAzgj83zev1TqbqhCSwATBNM90wjFtV9RwAjkQVUFUXOByOsyoqKr5jOhGbjfb7i8hfAJwOYPMo1ZfdfD7f51SfkAQ1AKZpFgLwisiwJNGxQVXP8vl8lUwpEu/0bK51RU/nnx3Fn37b6/UezAgQEh+EfWTudrsniMhzIrJdEumYJiIn77TTTkMGDx78cm1tLfcPIHGJx+PZMyUlZYGIuAGkRvnnL62qqqphFAhJsBkA0zRTDMN4UFVPT3JNvwwEAu65c+cuZXqReMI0zdNF5EEAKVFvaES+WbVqVf7ChQv9jAQh8YERjotMnDgxE8B8dv4AgJ0dDseHHo9nJKUgcTTyv0lEHo9F5w8AlmU9wM6fkASbAeh5t/9FxGYnv19UtVZEfgLQAqAZQFNPI5fb89kCQCGiv+FQl4icVVlZOY1pRmLc+d+gqlfF8BZaVXU7n8/3G6NBSIIYANM0tzcM42VVLYrCvdYDeFtV3wDwod/vr+3LwT09xwcPsyxrD1U9WkT2B+CKuMAiN1ZWVv4DgDLdSAw6/3NV9YEY38YjXq/3bEaDkAQxAGPGjNna6XS+i+6NQiLFzwDmqGoFgE98Pl8gXBc2TTMXwBEi4gFwAiI3Naqqur/P53uf6UaiiWma+4rIQsRo2n+d/N+Jx24TkiAGYNSoUXkul+utCL3mp6r6nIg8unr16lei8dxw9OjRA1wu1yQROUNVh4b58v/0er1XMdVINBk5cmRqTk7O51GandtYZX7F5/MdxYgQEn84gxhVpIvIswDC3flbqvpvwzCu8Xq9n0ZThGeeeWY1gFvLy8tvr66uPlZVrxWR3cJw6ddU9WqmGYk22dnZV8W68wcAwzDuYzQISYAZgPLycqO6unougFFhvo+XROTCysrK2ngQpby83KiqqjJF5Fp0LyDsu7AiKy3L2pMLn0i06VmY+zUiu6Vvb6grKSkpLC8vtxgVQmxuAEzTvLqnUwwXP4rIX+N1P/0pU6a41q5de66IXI++7ZjWJiIHVFZWfsoUI9HG7Xb/E8Bfw3CpgKr+R0ReV9UqwzDaVbWl118OBL7nfhiEJIABKCsrG2FZ1msI3+6BT6vqeT6frzneRSorK9suEAjcLSJjevP3qjre5/PNZnqRaGOaZkrPa7GbhXAZv4g81XP09UqqSkgSG4CeRXKfARgYht9sU9W/+ny+e+wmlsfjMVX1EQD9NvJnd3m93kuYWiRGBmC0iMwL4RJrVLXM5/O9QTUJSWx6sxOgOJ3OGWHq/L9W1T3s2PkDQGVlpc8wjN1VddEGRv4LV69efTnTisTM0Xfv8R8s3/r9/t3Z+RNCA/D7iGKyiBwZht/60jCM/e3+PnBFRcXXAA4BcAv+uLnPd36/38PtTkmMGRHk95pU9bh58+Z9TwkJSZIBw8b+4+jRozd3uVxL0b2dbtCo6qKurq4T5s+fX59I4rnd7rEAngBgqOpBPp/vQ6YUiRUej6dAVZcF+fUrvF7vrVSREM4AAABcLtfNoXb+AD7q6Og4NtE6fwDwer1zROQAAKex8ydxwC5Bfu+7jIyMeykfIcmFcyOjiT1VdXJI0wsiyw3DOP65555rSlQBe1714+t+JOaEsIvl7OnTp7dTQUJoAH5vTO5FaMcF/2RZ1uGVlZWrKDMhUSGoczkMw3iO0hGSfKy3g3e73YcD2CeE61oATvH5fN9SYkKiRl4wX2ptbf2S0hFCA/D76D/Uw2uu8Xq9r1FeQqJKVhDfaU7kR3SEkD4YgLKysv1EZEQI13yjpKTkn5SWkOiiqmlBfK2RyhFCAwAAsCzrbyFcrz0QCJzNwz8IiT4iIlSBENJb/rAI0DTNbQAcHcL1bpk7d+5yykrikfHjx+cEAoECy7LyRKSfqmYDSFfVLhGpB9AsIj+3trYuff7551upmP0ZMWKEc8sttxysqtuoarZhGNmWZeWIiPYcbNQsIr/6/f7l8+bN+4mKrZ/y8nJj8eLF26WkpOSrav8eDV0AmlV1LYDfAFTz9NNujj/++IyMjIyhqtofQK6qZotIpqp2GYbRCKDZsqzVAJb5fL6GuDAAInIKgj/sZ0VGRsbNDH1sME3zYMMwBvRypLimoqJiYR+unW4YxnaqupWI9AOQEsq9dnV1vRPpxtY0zRQABxiGcYRlWbsYhlHS1dW1w+//XVXX1QPr/nt6erq63e5vVHUJgDcNw3i9srJyMf6482OvKCsr205Ve72gVlVbvF7vv5nRwXHSSScNdTgcI0Vkb1UtAVCsqqm/x1lV/xvvdePudDrhdrvrASwVkfdU9XVVfTvYw8pM0xxtGIazt39vGMbbc+bMWRXkb+1lGMYOvfzz5srKygW9uKZDRA4SkSMty9q/urp6D6fTmW5Z1v9ot+7/d7vdPwH4QlXfMAzjlWDrjc3aXgeAvUTkKFXdVUR2ArCjqhp/1uj3HFz339xu9489bc3bhmG8blnWRz6fLxDEfWxmGMZhIRmAdRvGPnI93yWOHSJytaoe2stO5i1sZMvYk046abBhGMeIyMEAdgMwWFXlzx1nkLSlpaVtEynXnZaW5haREwEcDiDr9wa/j/ctAAaJyCAAx6kq3G73KgCVIvJUX455VtX9VXVOH377KwCDo5g6A91ud0QaaFUd5vP5Iv6Ggcfj2QfAeFUdCWBICHmaB2CfHsN2iYh0mab5mmEYT1uW9azP52vrQ318qmeGqVf4/f4jAbwaZN2fqqoTevm3ywEs2IiWxap6HgATwIB1DVMv2RrA1iJytKre6na7vwPwlIhMr6ysXJEo7e2UKVNc9fX1JwA4CcCRADb/sxnqSx0UkYEAjlTVG0Sk3u12PwNgutfrXdRbA+VwOIZaluUNygCYprmXqhYFqce3fWzkSPy52CwRmQDgDADDI2hU/jV79uy1Yb73QhE5G8Cp2PhJjaGwJYALVPUCt9v9pare2a9fv1mPPvpoF7Mn+kycODGzo6NjnKqeo6q7RehnXCIyUlVHikiD2+1+yu/335aI5yWUlZXtHQgErlPVI9CHY+J7wXYA/q6qV5mm+aJhGNdVVlZ+ZFedxowZs63T6ZxSX19/Ro/ZiQR5AE4DcJrb7f5KRO5tbW19NBKPJZ3rNMzjQ7jOTT6fr5PNkv3oeUZ6Ts+rn1tG+vdU9fEwjvwKVPXGHhcezQVwO4vItPr6+qtN07x5zZo1T/IQqOgwadKktJaWlqkdHR1XAtgsiusecwFc4HQ6z3a73dMMw7ixoqLiuwTo+LezLOt2y7LMCC8iFRE5TlWPM03zBQAX+3y+OhvpNNCyrPKejtkZxZ/eUVXvSk9P/6vb7b6zra3tvnAagXXfAgh28d/ajIyM6Wya7IfH4ynu37//+z27Pm4ZhZ9c1jOlFRJjx47d0uPxPNjz3OzkKHf+f6icIvLIgAEDPjZNc19mVOQoLy83TNOc1NraukxEbgWwWYxuJQXAWZZl1bjd7sunTJnisqumpmlOsizrSwDuaNYhETlORBabpnlVvOs3fvz4HLfbfaNlWcsBnBnlzn9dBgC4OT09fYnH4zkurAagrKxsIICCIK9RyWf/tqz8R6jqf0Rkjyj+7GMIcUGQaZqeQCBQrarnAIiXxmMXEXnX7XY/PHHixExmV9hHX4Oqq6vfEJFpALaPk9vKBHDL2rVrPzNNc7id9Bw5cmSqx+N5ukfP3BjdRrqI3FBfX/9WWVnZdnGad4d1dXUtAfA3ABlxcls7qurzbrd7nmma/cNiAFT18BDc3FNsomzHziLybwDZUfzNTlV9OoSOP9fj8TwiIhUxHP1ttCoAOKuzs/Nj0zR3ZoqFB4/HY1qW9SmAg+Px/kSkVETeNU3zQsRuJqrXqGpWdnb266o6MU5uaV/Lsj41TfPQeNFo0qRJaW63+2bLsl5B9xqGeGS0iHxWVlZ2YMgGAMAhQSb/8srKyg/YTNmOzRD9qaz5Pp9vTZCdwE6GYXyhqlNs0MAWicgHpml6mGbBY5pmisfjeVpVvYjcws5wkSoid7vd7opJkyalxfm9bg1g/zi7py1EZIHH4zHjYNS/XWtr6wcArkBoh+FFg20sy3rDNM1LQp0BGBFkY7cAhPSOx4L5ktvtPlxV31HVHWxU1gwRmeN2u//CsPedcePG9QPwchyNUnudrq2trW+OHj16c0axz6So6hy3231qrG5g7NixwyzLehfALjbSzSkid7jd7nsCgUCfDYsxfvz4HACDgpwBeIN5S3rBVyUlJX3OFY/Hcxq631nOtWGZBcBtqnoxw997xowZs4Pf738/xPNIYsk+TqfzDcTP+hQ74QDwhNvtHhXtH/Z4PCMDgcC7iN8p/01xgYjc3WcD4Pf7C4P8wYDD4XibOUt6weN9PR/C4/GM73ll0Gnzsu/F8PeO0aNHD3A6nS8DKLRzOURkGIA0RjRoEzAzmgsr3W73Iao6D8GdpmnrtsZQ1aAqm6ouDveGLiQh8RuGMb2PFfJ4VZ2G+H8GR8KEaZq5TqfzJbt3/iQsZIrIvJ5HQZHOu70APJushs0ItsKJSDXzlPTCKL5YUVHxYx86//0BeMEp1KRh5MiRqSKyQER2oxqkh+39fv+jkfyBk046aaiILEB034aKK5whOO5lMRwtZLlcroTvIAoKChoS4Gjlx/oQ1/4AKqPsxpvRPe2YnqRtwJqePfQjQa92esvOzr4DwL5RjrmB+Hm32y60A6gG8JWI/Npj8DPQvYZsJ3RvYRtOTvZ4PGMqKyvnRaAPSRcRH6L7SnE9uvePiJu+y9lzwputDACAuT2HZyQ0VVVVOwD4No5uqRXAIgCfqmotuo9Srd/Ed97szYXLy8uN6urqWQC2idC9/wTgDVV92+FwLOno6Kh75plnVv/+H6dMmeJqamraTFWLLcsqBXAAgKMQ/6+ghUqXz+f7JFY/7vF4ynoOn4kEqwC8AeBtVV3idDqXr3vi3ogRI5z9+vXbzOVyFalqqYjsj+4dUbmK/49myWsYxuy0tLR3N7TpW3l5ubF06dLdLcsy0X0mR1h2FlXVO0zTXNCXg5h6g2EY96lqRFb7i8jSntMk3zMMY6nT6aybNWtW47rmA0B/wzBKVXVnAIei+3C21FjMAGQFWcivWDeSA1V9T0TuV9X54a6Iv1NdXX0lgCPC3bkBqFTVaaWlpQs3NpvSc6jPqp7PQgAPjBgxwjlgwIARAM4GcCLsvyAxrjjppJMGq2q4p3n9AP4lItOKi4tf21jMe85vWN3zeRvAQ6ZpOhwOx4GWZZ0DYDSS91FUB4A7u7q67njmmWd+7YWBtwB8DODjiRMnXtfe3n6piFyG0BfWDRKRSwHcEMbR/zhVPT3Meq0F8ETPaaFLNvaHPW3otz2fBQBunThxYmZnZ+eoHjMctdkwp4jkBPndBjZhCU8tgAt8Pt/LER4FDlHVf4TxkgEReaKrq+uf8+bN+6an0vX5Ij0dxGsAXhszZswOLpfrelUdDy5ODAsOh+M+hO/5qwXgqUAgcMPcuXNXBnuRnnPYFwJY2HPy27UAJiVTzEVkKYAxlZWVNcF8f8aMGS0Arhs7duwjfr//aREJdbb2ItM07/b5fM2hlm3UqFF5InJXGOVqAnCzy+W6f91RfpCazQIwy+Px7KOqt6F7FjLiMwBBVcCurq4mNmEJja+trW1SJI6gXM8Mwz0I33P/zw3DOLOiouLjcN5jj5E4pays7N5AIDBdREqZIiGZvhNV9Zgw5U+Vw+GYUlFR8V6YY/49gNNN07yvZ9/8XZMgNK92dHS458+fXx/qhebMmbPKNM1jANyI7p31gmVzwzDOAHB3qPeUkpJyA7oP1gkHz6jqVJ/P90M4A9Czu+6Bpml6ROQBRPCRlBHsFI3f728GSURUVa/xer2eaHT+pmmeAODYMI1cHmpqaton3J3/uvRce08ADzJVgo55uqreHabLTQOwZ7g7/z/NCnze1NS0Tzg6oDjnudWrVx8Tjs5/3RkVr9d7par+PcRG6XyEeNZCWVnZbuh+nBcqHSJyntfrHRPuzv9P2lWq6i6qujCSBiCohQepqakdbMoSkmt8Pt91CPHUvj5QHg7TAuCSysrKcxcsWBDxvPT5fG1er/c8VZ2K7qln0pdGp3s0NygMMb/C6/VOjtS6lHVZsGBBh9frvVhVT0P3OoOEomfh2ik9j70iUWduBDAzhEsMKSsrC2lTLcuyytH9xk8oNAM4rrKyMioDAJ/P98OaNWuOAPB4pAxAUKO8rq4uvkKTePzL6/XeEK0fM03z6DC8+22JyCSv13tXtMXy+Xz39+xXTxPQS0aMGOEMw/bIKiLneL3eW2MQ8+ki4gEQSKCwNFuWdbzP54vouq6MjIwzVfWzEDrw8cF+1+PxFAM4LsQi1IvIwV6v97VoBmfhwoV+r9c7RUTuj4QBCOpZflpaWtJunhBFotnILFPVU6I48gdCey74O3+prKx8OlYB8vl8s3umJ0kv6N+/vxvAjiFe5qrKyspHYlWGysrKeSJydgKF5S6fz1cX6R+ZPn16u4hcFMIlgt6vQlUvQ2gLOdsNwzihsrLy0xjFSCsrKy8QkRlhNQAi0hLkDEAmm7MI2/Lm5l+ill3di1naovV7Ho9nlzAc+PJkLEb+6zEBDwF4hBnbKy4I8fsVXq/3plgXorKy8nEkxpqAtU6nM2p1yOv1vg3guSC/nm+a5vZ9/dLYsWO3ADA+xFs/r6KiYlGMY6WNjY1nAgjbvh2GZVlBLeYzDCPRN0iJNQ3ReJ7dw/s+n+/VqGayqifES9S0tbVNjZdgtbW1XQKghmm7YUzT3FFEgn6OKyIrXS7XWfFSnqampisBfG7zsNwT7TNdDMMoD+G7B/b1O4FAYDSAlBBueY7X630yHoK1YMGCDhEZB6AlLLEQkaYgK+MQNmmRQ0RWR/G3YjGKNkPzD3pONN5S6C3PP/98q4hMRnQfodiNkxHCSm7Lss4L5V3rSDTGPYsCbbsGRERmRvs3KyoqPlPVxUF+facotzW/qeqF8RSzysrKWgBh2TfFQPBbzeazPYsclmX9HK2BTGNj43PRLFvP6zih5E+lz+d7K95iVllZ+YGIzGH2brCzCaUhfs7n870Ub2Xy+XyfA5hu05DUVVZWrohRLiwI0vkP7cvf90z/HxLCfZb7fL418RY4VX1ARJaHeh2nqi4P5iwAERkaw/J7AXxmgwrmBHBpnM8AvB3FRw2/m5ujQ8l9EbkxXgPu9/v/4XA4PAj9daOEYuzYsVsEAoE9gh6pGMb18Vo2Vb1aRCbCftsGfxBDM/iOql4RhNZ96ncCgcARCH4L75/S09Mfi8fA+Xy+TtM0y0VkVqgdVF2QSV8aw8I/YYfa5fF4dlfVYA3A0ijd5scxkGafEL67YFN7bceSuXPnrjRN8wUROZHd/h+M0d4S5KljAN6M5OZOYWiPfnC73XMBlNksLLUxzIdlDkffPbKIbN7Hv99bNeincvdt6PCjeKBfv36++vr62wFsHbSxDtYAANh51KhReWzaNsr+IYySP4/SPdbFQJdQFoJNt0HcH2bq/29DnMgxV1XbxVxVf4nVbxuGEewMZ1Yfyxhs3gVU9el4jl/PAWYhbRBkuFyuYJ8jGKmpqQeARGSkaxjG4mjcYC+O8w0rZWVlgwBsFeTXm9PT05+P96D369fvdfCwrHA1xB2WZc2zQRHfAbDGTjERkZgtol2zZk2wq9h7bQBM00xBkOc3qOqiSG7zG0Yj9UxI3+95BeSrIEU6EGRDyedQ1WBPwWopLi6OysjcsqyoPv9X1YJQGtl4npL7kzN/mbXgDw1VYZBf/SAcp8BFmp5TBP/NSPeO/v37Bzsv70Av3yQxDGMQgjxkTERet4OOFRUVnwP4Puh62fO/QW1woKrHMpU3mED7A9giSF2XbOwcc5uPBLcO4euLbFTO91gL/r86qOpWjDmJJpZlhdLWvG2XtAMQdN4ZPZ1VUJVMREpN09yZqbZeRoUwWnozgXXZJgRTVWUjA7iYVaCbsWPHbo4gDx2zU8yj9diO9Dp3Bgb73a6uriobFfXLUGcA3g5B5LFMtT8yYsQIJwB3CCOJBQksz5YhOPrldimk3+9fyprw37htlQwx7+joYMzji2Dz7rdnnnnmV7sUUlWDzjsD+O/OQsFuPFNWXl5uMNf+n/79+x8fwki3IS8v7/0ElifoUySdTqdtKqXD4fiVNeG/nXhGMug4f/78BiTgUcF2RVWDzbvf7FROEQm6jqzbcQe7gGXH6urqE5hufyCUk8Je7VlElqgE3UD6/f4WuxTS5/N1Ikz7ddsdwzCCjnkgELCThgqgnhGPm44x2Ha02U7lVNWgz3Iw1rlIRQg3cBnTrRvTNHcWkcNDuMSCBK+UoYyQ7La7nrBGhGYAGHMSAsEep+5Mmrq5zv9/A8CqIBv1/dxu9/7MN0BErkHw5063dXZ2zktkfVQ16M7A4XDk2MgIOgCks0YAfr8/6JgbhpFjs+JmM+L2bmtExFYxdDgcQd/vfzuqnvdY54ZwHzcnu/v1eDw7ARgdwiW88+fPr09wmYIuXyAQ2NxG5czlaPC/cQt6itKyLNvE3DTNdIR27CwJ5+jWMILKO1Xd3E5117KsvHDMAMAwjIoQ7uMA0zRPSnLHeVcIo38YhvFEomskIl+FoE+RjRqfAhAAwLx5834G0MqYE5u0NVljxozZxkZFDTrv/tBZVVRULALweQiC33n88cdnJGOyeTye8QBCefZfW1FR8U4SmKQVIXy31EZFLWYTvG7o9CvGnESZoNsap9Npm7wTkaDzzljPxe4K4V62S09PvybZsmzcuHH9VPX2EIP4ELpXESc0fr9/ZQhfP8hGPd7eIOvmd7BxP9BGMd+LkY4fKioqfgLQlgRtTdB59z8GIDc3dw6A70K4n7+UlZUdlkyJ5vf7H0Dwm04AwM+tra2PJoNWPdPBwT4T3nf8+PFxvyisZyOoMWyC/0BNkN/bY+zYsVvYoHwC4GSGOd76xqA3yTnKDgU86aSTigAEvRvv/xiAnnfQ7w/hngzLsp6ySaUNGdM0zwEwNsQsvfn5559vTZZKieD3d3d1dXXF/Z4T/fv3PxxAf7a/f5gBCDbmRiAQGB3v5XO73fsB2I6Rji8Mwwh2l9vdTjrppMHxXj6Hw+EJSZ8NdEiPILTdkLbx+/2zpkyZ4krk5CorK9tDRO4I8TI/Ang0mSqlqr4Vwnen2KCzO4NN7x+xLGsRgnwv2w4xBzCZUY7LvAu2rTEcDkdc1+MRI0Y4ReSUsBsAn8/XICLlITaCR9bX1z+cwCP/HS3LegEhvuutqjf5fL62ZKqUhmEsDCGvDiwrK9stXsvm8Xh2Aaf/19umIMgFxiKyh2ma+8ZzWwBgIqMcf/j9/rcBBHuy6ukTJ07MjNey9e/ff4KqhjRLscFX1latWvUQgOpQXbFpmlcnWlKNHj16c8Mw/o0QDrbp6fwX9+vX75EkdOVfIIQZpkAgcGMcl+1a8P3/DRHKKZf/jGNDexUAF8Mbf/Qc6hPsKY0DOjo6Lozj0f/fQ87dDf2HhQsX+g3DuCDUHxCRa91u980J1PkPcLlcr6tqqO8nWw6H45wE3/d/Q6PBAIA5IeTUSNM0j4jD0f9IEeG5GBuO28wQvjvCNM0T4jDme6rqqYxuXDMzhO9eNmbMmK3jrUADBgy4CMCQiBkAAKioqHgdwPNhuN8r3G73LXYfGY0ZM2Zrl8v1JoBdwnC5hysqKt5L1hrpcDhCWvcgItPGjRvXL17KM3bs2C1U9QmO/jdMZWXlF6r6cQgxf3j06NFxszPgpEmT0izLmoYk2jvepm3NUwA6gvx6nsPhmB5P9do0zRIA14fjWpvctU5VzwEQjiM5L3e73U9MmjQpzY5JZJrmrk6n8z0AJWG43E+q+rdkrpRz5sxZDOCTEC6xTc/rlzGvmOXl5UYgEHgCwNYgG29wDOPxEL6+tcvleixejh9va2u7TURKGdW4b2t+CWUgKyJHut3uc+PFdIrILABh6Uc3WZF8Pt8PAMK1GvK0lpaW9+zwesWfOn+PiLwLYFAYLmeJyKSeRVFJjYg8FurA2+12/z3W5aiurr4bAKf+e4HT6ZyD0I5JHl1dXX1DrMvh8Ximqur5jGjStDV3ezyeI2PcDzlaW1tnA9g1bIa8N3/k9XrnA3g8TIHYzeFwfOzxeOJ+pfT48eNz3G73YyJSASBcWxyXV1ZWvsIqCaSnpz8F4NsQL3Otx+OJmTt3u93XAJjKaPaOWbNmNYrI3SFe5q9ut/vSGHb+Zap6N6NpHyorK18F8EEo3lVVfaZpHhCrMhiG8SBCO2wuOAMAAKmpqRcBqA3T7/ZT1bmmac4vKyuLy80zPB7PkV1dXV+GcfYDqrqgpKTkRlbHbqZPn94OINS3RERV7zdN88pou3G3230bgHJGsm9YlnUbgF9CvMztPeZLohz3Kar6NEI49IvEBFXVUNuIHBF5ye12HxXlnEtxu91PRmI/jF4n8YwZM1oCgcCJCH4b1/XNBpxoWVa12+2+Il7et/R4PMVut/s5VX0ZwPZhLOs3fr9/Ynl5ucW6+P+UlJTMQAgHUP2/vHKT2+2eZ5pmbqTv+YQTTsgWkXkA/sII9p2efUbCYYTL3W73/FGjRuVFyfDdLCKPgK/82TXv3gLwYoiXyQTwotvtLo/GWpSeRa8vAzgtIrMKffnjuXPnLlXV0Qh+ReX6yAJwc0dHx1emaV55wgknZMciOUzTLPF4PI+r6mIAx4f58r8AGNnzTipZtwUvL7dEJFwLIkcbhvFRJF8RNE3z2LS0tMXgM/+QaGxsfCiEA4L+4MdSUlI+dbvdx0TqXns2nnoXwBWMnL0RkSsB+EO8jAPANdXV1a+aplkYwbbG43K5FovIiEj9Rp8djM/ne0tETkf4T67rLyI3paWlfePxeO7zeDx7RjoZpkyZ4jJN81i32/2SiCxR1dMR/ld6mkTkmMrKyhpWv/VTWVm5AMCT4biWqg4VkVfcbrdv7Nixw8J1jx6PZ4jb7Z4nIi8gPItBk5oFCxZ0WJZ1KoLcHvhP7AjgRdM053s8nt3D2AD393g8d1uW9ZGI8HTHxGhrlgC4LkyXO1REvnC73beHc68Aj8ezk2maL/esPRsYST2cQYo4y+12b4/I7M7Vr2d17flut7tGRHyq+rqqfuDz+TpDvfj48eNzurq6DgYwur6+fpSIRPJd8g5VHeX1ej9i1dtkx32hiBwEID9Mlzw5EAic5Ha7F4jIdMuyXghiy2Vxu92HAbhAVY8Fn/uGFZ/P947b7b4JQFje5BCRE1X1RNM0XxGR6W1tbc8Gc8hWWVnZHpZlnQ/Ao6ppjFTCtTX/FJEjAYRjQV8qgEudTuf5brd7lmEYM4qKit7u66Ne0zQdAE4QkfNV9RARicralqBHu16v9ybTNP0iEskNfopV9WoAV4tIq2ma74jI56paKyJLHQ5HXXZ29m/r201vxIgRzv79+28nIkNEZIiqlgI4sKura+eeKZxI066qHp/P9warXK86g+aysrIJlmW9E8ZZGAFwjKoeIyJNpmm+JSLv9WxG821mZuY3PQsRYZqmIxAIDHC5XFsD2F1VDwVwKELc7plsnNWrV1/bv3//I8I5wu5p3I9MT09vcbvdbwF4X0Q+9Pv93xqG8c3vRrC8vNxYvHjxlg6HY0sAu4rIIQBGWJa1PSOT0G1NoKysbKJlWZ8DCNeaoVQAky3LmlxdXf2Tx+N507Ks9x0OxxednZ3f/vbbbz8sXLjQDwAjR45MzcrK2tLhcGxrWdbeAA4BcCCAvGhr4QxRyNvcbncTgAeiMDrK+L1i/26OAoEA6uvr4Xa7OwA0A2jsETETQMo6ji/auq41DOPEioqKRaxuvaeiouI/Ho/nMlW9KwKXzxaR4wAc93v+tLa2wu12/39lcDpjkStJzcKFC/0nnXTSOIfD8T6AAWG+fCaAY3pMIByObt//e8yrq6vhdHITvyRta772eDyTVdUbgQHh1qo6TkTGWZYFp9OJAQMG/KGtAQDLiv168JA7ba/X+zCACQBiuad9KoDN0f0ssN+6nX8M+NHhcIxg5x8clZWVdwO4lUokD3Pnzl3pcDiOAFBPNUgU25p5InJeMmsQllG71+ud0+O01ySzmKr6mWEYe/Zsc0uCz6crEaZFgcQe9NSZMQjvG0aEbMoEPALgWhqA0Bvt11R1N1VNygNuRGRGe3v7ARUVFT+yWoXupfLy8s4G8AylSCrj96aqTgDQSTVIFPOuHMB9NAAh4vP5flizZs3BAG5JIg0bVbWssrLylGBWHJP18+ijj3apqiki99u4GPUi8hCj2ac25F+qOhL2fhxwL7rXJBH7mIALAFyJ8L/eHi06ROTOmBoAoHtRT88U7gkIfZ/3+B6mqi70+/3DfD5fJatQRDqDQGVl5VRVvRSA3XZQ/FZEDgTwNiPZ57i/EQgEDhCRb2x265aqXu71ei+0cUeSzCbgFlUdC6DdZre+1jCMo0XEG3MDsI6Yz7e1tRWj+/lKok3p/SQip/p8vkPnzZv3DatOxDuEOwGchPAcSx0N3lDVPXo2HSFBMHfu3CrLsvZR1YV2aYRF5Difz3cbo2frtqYSwOE2Mp9fiMieFRUVQdWTiL669/zzz7d6vd5ywzD2AfB+AuRHF4Db29vbCysrK5+my4+qO5+vqjshhHO9o5Qf5atXrz7K5/OtYdRCbox/9vl8hwK4EEA8P157W1WH9+xoSezf1rzrdDqHIUwn4EYIBfBgW1vbfpWVlSuCvUhUdjarqKj4zOv17tfzbM+ORqATwOOqWuL1ei977rnnmlhNYtMheL3eEwBMQvw9I/5cRPbxer3X/r7hBwlPQ+f1eu8NBAK7ons//niiGcAlJSUlh/h8vq8YqsRh1qxZjV6v90wROQbAD/F0byKyUlWP8nq954W67iyqW5v6fL6XeozAgQDssENeC4B7DcPI93q9Z/p8vjpWjbhw6E+p6hB0b0Ud68VWv6rquT1T/p8yOpFh7ty5y71e74EichKAWD9aUQCzVLXI6/XexRM+E5fKysoFbW1tBap6OUI/wjoc/dE/0tPTS30+36vhuGBMtsHy+XzvADjMNM1dReRUAOMQ/l3Agq/d3VvFznQ6nbPmzJnzC6tBXM4G/AbgKtM07xaRywGcg+6d36LFLwDubG9vv58zQtGrmpWVlfPKy8vnV1VVmSJyDYDiKP6+BWCuql7v8/m+ZDiSg55R9m2maT4kIhcAuBTAZlG8hWYAD6jqHeF+tBjTfTB9Pt/nAD6fMmXK5WvXrh0pIqcAOAJATgxuZwWAOYFAYNbcuXOXMu1tYwTWALjMNM0bAIwTkTMA7B7Bn/xQVR8CUBnE4UIkDPSMuCsBeN1u9wgROUNVxwCI1ME9a0Rkut/vf3ju3LkrGYGkbWuaAfzTNM27emaizgBwECJ3Fk61iDxsWdbTPp+vIRI/EBcbYfcc5vMcgOd6TkXaVUQOB3A4uk9sikTF/hnAIlV9zbKsd+fOnVvFFLd15WwA8BCAhzweT4FlWScCOL7nkJlQtobuBPAhgBdE5F+hLLgh4Z8R8Hq9bwJ484QTTshOT08/WlVP7BlEhDSj2POc9VUA/1q9evVCrusg67Q1bQBmAphZVla2naoeb1nWiSJyAICMEC4dUNXPRGSBw+H4VzR2lHXGobgBAJ/0fG4ZOXJkak5OThGAAsuyCkSkCEAhuk9py0b34T/rc2B+AE3ofnXsaxFZblnWMgDLACxLtEU77e3to7Kysvocz6ysrITbsKSysrIWwG0Abps0aVJaa2vrcAB7AShQ1aEish26TwHLQ/c5Ek09Hf3qns9yANWq+kV7e/sHoSy0sSxrnsvl6vV0YVdXlxVCDhzf1xwI5ffiiZ7HML6eD0zTzAewr4iU9sR8CLrPCclD9wxjB7rfLGgG8IOq/igiVQCWqOoHXq83pD1MOjs7t8/IyJBo1MPU1NSzA4HABX39XldXV0ss2/lx48YFO40eN29fVVRUfAfgQQAPjhgxwrnVVlvtqqp7ofsk23wAO/TkXB6AdHQ/x+8EsEZVVxmG8bWqLhGRLy3Lei+Ukf7PP//8ycCBA/ukqSRC5Z84cWKm3+/P6uzszLQsq6G9vb15wYIF3FOcEEII2QD/B+Jkdit2CtFFAAAAJXRFWHRkYXRlOmNyZWF0ZQAyMDI0LTA3LTA4VDAwOjEyOjMwKzAwOjAwIuTp6AAAACV0RVh0ZGF0ZTptb2RpZnkAMjAyNC0wNy0wOFQwMDoxMjozMCswMDowMFO5UVQAAAAASUVORK5CYII=;" parent="1" vertex="1">
          <mxGeometry x="-587.51" y="160" width="107.48" height="110" as="geometry" />
        </mxCell>
        <mxCell id="2QkX6RSnDl6fCv8vAZ2F-7" value="scrape http://${host}:{port}" style="edgeStyle=orthogonalEdgeStyle;rounded=0;orthogonalLoop=1;jettySize=auto;html=1;entryX=0;entryY=0.5;entryDx=0;entryDy=0;" parent="1" source="2QkX6RSnDl6fCv8vAZ2F-5" target="2QkX6RSnDl6fCv8vAZ2F-6" edge="1">
          <mxGeometry relative="1" as="geometry" />
        </mxCell>
        <mxCell id="2QkX6RSnDl6fCv8vAZ2F-5" value="prometheus" style="shape=image;verticalLabelPosition=bottom;labelBackgroundColor=default;verticalAlign=top;aspect=fixed;imageAspect=0;image=data:image/png,iVBORw0KGgoAAAANSUhEUgAAAHMAAAByCAMAAABXwR5xAAAABGdBTUEAALGPC/xhBQAAACBjSFJNAAB6JgAAgIQAAPoAAACA6AAAdTAAAOpgAAA6mAAAF3CculE8AAACvlBMVEUAAAD/VVXhSy3pUy3oTy3oUi7lUy3nUS3nUC3mUi3mUC3oUS7jVTnbSSToUyrnUi3mUSvmUyzmUSzmUizmUizmUizmUizlUy3lUy3lUSznVTHlUS3lUyzmUizmUizmUivjVSvVVSvlUS3mUizmUizlUizmUSznUyrnUyvmUizmUiznUSvmTTPmUi3mUyzmUizlUSvkUSj/ZjPmUSzmUizmUyzjVS//gADmUi3mUizmUizlUivmUizmUiznUizmUyzmUiznUi3/QEDlUizmUizlUyz/AADlUizmUizmUi3mUSvmUizkUSvlUivmUi3mUizmUizmUyvmUyznUizmVSvoVS7mUizmUizlUyvmUizoUSzmUivlUyzlUiznUyvmUyzmUizmUyvnUSvrTifmUSznUizpTiznUSzmUyznUizmUSzmUivmUivnUi3mUiztSSTmUy3mUizmUSzmUizmUizmUi3mUy3jUynlUSznUS3nUyznUizrUinmUizkUCvlUSzmUizmUizmUizmUizmUSzoUSvmUSzmUy3mUizmUizmUizmTSblUivmUy3mUizmUS3mUizmUizlUyvmUS3lVCzmUizkUi7mUizuVTPmUiznUiznUDDjVSvmUizqVSvnVCznUivmUizmUyzmVC7mUizmUizmUizqVSvmUizmUSzlUiznUi3lUivnUivoXS7mUy3mUizmUi3nUyzlUizmUiznUivmUSzmUyvnUiznUiznUSvnUSznUizmUyzkUS3iTifmUSvmUyvmUSzmUS3mUizmUiznUi3mUizkUS/mUizmUivmUSvlUi3mUizmUizmVCzmUizmUizlUS3nVSvmUSvpUCzfYCDmUi3mUi7nUivnUCvnUizlUyrnUy3mUiznUyzmUinmUyzoUS7mUy3mUizmUi3fUDDmUivmUiz///8wLlsQAAAA6HRSTlMAAxEiLThEVUk+MxYJBzdgh63V+f7hupRsRRV3s/LdmRIGT/P8x24riOm7Xgpa0u2BEwXY9JEbAmfizXb695I0yokEbetiAZX9j8LFL07O5/uO7sYeIcm0Te9MpYtjX6p5sLwNkJ4XnVxLhHzZ5cMOcoYp3F3UKCWpP3WyGcEwiqTX47i/QvFmwL6iFDtQy1vshVmgOsQc9Q+s2yAk2gxAk/B7PdZ69hjkuVd9nzULeNCDaYChalJT0adrdHPPORqNtqOmluCx6iboZEi9tfhG3phhKjwjCKsyQTaoMUqbVh9vLJrTyBDfZlF6awAAAAFiS0dE6VHTR5QAAAAHdElNRQfmBxwRNS1eLDGMAAAHHUlEQVRo3r1a+0MUVRS+64ogCr4WH4CSuiIPEcVFTJGEcF1EhbBIfIKKb3zg25RAEEws00xIlIeIKImpWJCiqKWlkpmZmZaavebPaGZ3Znd2ufeeO7O7nJ/OzHznfnPv3HvuOecOQopF00Xb1aObp1d3b22Pnsjd4uPbq3efvv04m+j8+g8YOMjfTXwa74DAwRxBhgR5vuZqwqHD+gzn6KIfEezK7o4MCeVYRB8WPso1YxoxmmOXyDFjnWaMCh/HKRND9HinGGMmvE5qeuKkWNKjyXFOzKc3phB7E5/wJqWviVON6hi7TDMRG01CaDp1hJNnqKGcSZmrs6IQSqF/1tSQKMUL8i0dpUFfHpEGTabZbyujfCed1tq7AqQvvG7mKKGck0FtbK6AmQcvG938GGbKBXr6+5u/1EKWxbrIh5EyU0dvKMuM8o9lIV28hMkPLIXaybQA+8hHMZvoO5bBlMbl4LuvsCBXym6tWk1Er+kBcobA4+UlOv8c6521MYvJ8InrAMr1DN/IQ8RusK7/XLSR9k3pE2kTcfrEbbaqW0TwVgmcjZCB9pLbaEtmO3ku7hj1nqTulOC7xBt5kFd6n0zpn0M2y0dLCkTVGuuFW66n8OpuunOYS1wlhRSzIoT2WLRQq8GoYvONEl7dC7hBku/NpFnt5QFhZu0Dm8U+4dpUymvTIIeP32X2p0LO50PLbLKZeAnXHwnaAWiyh2Ajn81Um2hhg/tYGkrJJpG/PihoywB/yaXiNvEddJtDAuYTQTssMxKc1h6z9inU0eSO4coRIGY2B3O9eKVMvsIj+DlZbtZKQFcytQPnZ3SDo2ZQBa8Vyq2Ocdxxi1aZCHEmOkaDVYBBtQVWw3HBdsurjNsmqifAjkY7cC4G8LUW2BROv9PO7iRXJ2rlGRDnqXo7Uw8Aflr0mPncGft37c81SOrnYEftXWAggE4ScfHSRibJWa5RUs+lQJyD5V90BrS6vEXgF+cdZvwFzpYTXQQ72iSzvARgN0vACbUO8+DLUzIPcRyMPm3rrNIAYAMkZIfk56vdsotwsKPNzFjTEeL2d7hFHvznQJxZzAslmbzlaovkV2Mgzn6lInK8HkCup+TEX9u5JWgucpdF5BUoBaighDOtdldXOcYhOwPgztOitmt2V/EQZ6ol8BxqYPO1hKTR7molOHMtkVEtBGtgT+jaQM7rbH7yiIIsMpJj+lBFACpHSebaAnGaIzZhT6TKLiWcN8DB7caj6iHQTSWc33AsK3Q7BBqghDObKVoAg6f5Sji/BTmFTf86BIpTwglnzLd41G0ItE8J5yKQ0+QD1dB4ma6EMx1OmfnlPgvCfKegXmiMhDn5JOIoCPqenXMrQ2mgCqE7IOgiO+ddBs57CJWBoHZ2zh8YOGcipAdB+gpWSv/7DJzNsLu17j8MUsdSjpsDVR/MMryejfLcHRbOHxEqwN1/sGnpdNmh0U9snPKd2JBc/TAIy7lfSLVw8jNCmq4lZwssgZzpEQvlMXE61hRdP5Cr4W+MwDa9BaF2/LmCdBDgNaaQz2aPlsOUCbxHK27v7fmL5EPy8GPrT9rxIitlrVU09x4Ic0ZMW5hrV2TDD+1kHtOEf5tWp4+guuArFKP5R4cIUdBjZzkP4hv+lX/0hCFXVCP1hLB5lbCoCDnG/S3Oce4j9GWT8JB0DNdudIbyN1K69FR4+ozkMBY4QbmEtEWWmZONCcQzxd9dP7JiSYu8z65Zp5byIVQmIHv5LJWftPtkYpONwDg4FNqYJZdcnc/QWCANlBQ1O0iF+JEbfCa+1uMMrtPkD2ksnncaZai1LN+90ziTbJHwkM7ifGKbaORTvcslKoT448ZV2eQuJwZ/qv4PIlZmXzCdQLqUs8AujOhR1hmc4fawuE7g9HM4vxo/3P2cvRxxk9zOmd7h5DWhxc2c+ryOwFqdezmTcMibbuVMwWYCY3HBWEaaCsGcipu88K/nG+s+R7uBNCYBbqMcQfyByXjbTZSRL8kfv5RSuFkbQBdKpS92EG3GacnnbM+ByXqPfG6xgm7ZNY32swBN/iRygmllFSk0NfRUWV1kqMUOuw+er2ETFNIZfBBLXF5FCBpmU41bCZQX2FKBV6fx5iUUm5f434F161n9pRa/ZIrJPwka++PzZk92J12KrxWeJNXDjH/hy+AeSnYG4yTsDy8FbVi0Bl+Vua30l9jGB9i0Cre8tbuw6VVTjOJNcOwl7Ca+6JVjGegENmac1agqjaz9GzsVC4fZ0m/N02psSaYmWKMyQ49qxS/01H+WXlk4NyL4QmAxfoXk1yP10pZkUL5z3bjmZDmrtClNEaEu8ClyXv6t28jMWLx8JHKReEcnMhCawsIrkQvFpzn7Fr2HgcH1yPWivTvvP+yajQzL9E1AbpOeeS9W5xeNzkkr41LTEsclZ8UveFSqtJH/AUMt8ZPdmA04AAAAJXRFWHRkYXRlOmNyZWF0ZQAyMDIyLTA3LTI4VDE3OjUzOjQ1KzAwOjAwY7P6gwAAACV0RVh0ZGF0ZTptb2RpZnkAMjAyMi0wNy0yOFQxNzo1Mzo0NSswMDowMBLuQj8AAAAASUVORK5CYII=;" parent="1" vertex="1">
          <mxGeometry x="-560" y="350" width="52.46" height="52" as="geometry" />
        </mxCell>
        <mxCell id="2QkX6RSnDl6fCv8vAZ2F-9" value="collect metrics" style="edgeStyle=orthogonalEdgeStyle;rounded=0;orthogonalLoop=1;jettySize=auto;html=1;" parent="1" source="2QkX6RSnDl6fCv8vAZ2F-6" target="2QkX6RSnDl6fCv8vAZ2F-2" edge="1">
          <mxGeometry relative="1" as="geometry" />
        </mxCell>
        <mxCell id="2QkX6RSnDl6fCv8vAZ2F-6" value="node_exporter" style="shape=image;verticalLabelPosition=bottom;labelBackgroundColor=default;verticalAlign=top;aspect=fixed;imageAspect=0;image=data:image/png,iVBORw0KGgoAAAANSUhEUgAAAHMAAAByCAMAAABXwR5xAAAABGdBTUEAALGPC/xhBQAAACBjSFJNAAB6JgAAgIQAAPoAAACA6AAAdTAAAOpgAAA6mAAAF3CculE8AAACvlBMVEUAAAD/VVXhSy3pUy3oTy3oUi7lUy3nUS3nUC3mUi3mUC3oUS7jVTnbSSToUyrnUi3mUSvmUyzmUSzmUizmUizmUizmUizlUy3lUy3lUSznVTHlUS3lUyzmUizmUizmUivjVSvVVSvlUS3mUizmUizlUizmUSznUyrnUyvmUizmUiznUSvmTTPmUi3mUyzmUizlUSvkUSj/ZjPmUSzmUizmUyzjVS//gADmUi3mUizmUizlUivmUizmUiznUizmUyzmUiznUi3/QEDlUizmUizlUyz/AADlUizmUizmUi3mUSvmUizkUSvlUivmUi3mUizmUizmUyvmUyznUizmVSvoVS7mUizmUizlUyvmUizoUSzmUivlUyzlUiznUyvmUyzmUizmUyvnUSvrTifmUSznUizpTiznUSzmUyznUizmUSzmUivmUivnUi3mUiztSSTmUy3mUizmUSzmUizmUizmUi3mUy3jUynlUSznUS3nUyznUizrUinmUizkUCvlUSzmUizmUizmUizmUizmUSzoUSvmUSzmUy3mUizmUizmUizmTSblUivmUy3mUizmUS3mUizmUizlUyvmUS3lVCzmUizkUi7mUizuVTPmUiznUiznUDDjVSvmUizqVSvnVCznUivmUizmUyzmVC7mUizmUizmUizqVSvmUizmUSzlUiznUi3lUivnUivoXS7mUy3mUizmUi3nUyzlUizmUiznUivmUSzmUyvnUiznUiznUSvnUSznUizmUyzkUS3iTifmUSvmUyvmUSzmUS3mUizmUiznUi3mUizkUS/mUizmUivmUSvlUi3mUizmUizmVCzmUizmUizlUS3nVSvmUSvpUCzfYCDmUi3mUi7nUivnUCvnUizlUyrnUy3mUiznUyzmUinmUyzoUS7mUy3mUizmUi3fUDDmUivmUiz///8wLlsQAAAA6HRSTlMAAxEiLThEVUk+MxYJBzdgh63V+f7hupRsRRV3s/LdmRIGT/P8x24riOm7Xgpa0u2BEwXY9JEbAmfizXb695I0yokEbetiAZX9j8LFL07O5/uO7sYeIcm0Te9MpYtjX6p5sLwNkJ4XnVxLhHzZ5cMOcoYp3F3UKCWpP3WyGcEwiqTX47i/QvFmwL6iFDtQy1vshVmgOsQc9Q+s2yAk2gxAk/B7PdZ69hjkuVd9nzULeNCDaYChalJT0adrdHPPORqNtqOmluCx6iboZEi9tfhG3phhKjwjCKsyQTaoMUqbVh9vLJrTyBDfZlF6awAAAAFiS0dE6VHTR5QAAAAHdElNRQfmBxwRNS1eLDGMAAAHHUlEQVRo3r1a+0MUVRS+64ogCr4WH4CSuiIPEcVFTJGEcF1EhbBIfIKKb3zg25RAEEws00xIlIeIKImpWJCiqKWlkpmZmZaavebPaGZ3Znd2ufeeO7O7nJ/OzHznfnPv3HvuOecOQopF00Xb1aObp1d3b22Pnsjd4uPbq3efvv04m+j8+g8YOMjfTXwa74DAwRxBhgR5vuZqwqHD+gzn6KIfEezK7o4MCeVYRB8WPso1YxoxmmOXyDFjnWaMCh/HKRND9HinGGMmvE5qeuKkWNKjyXFOzKc3phB7E5/wJqWviVON6hi7TDMRG01CaDp1hJNnqKGcSZmrs6IQSqF/1tSQKMUL8i0dpUFfHpEGTabZbyujfCed1tq7AqQvvG7mKKGck0FtbK6AmQcvG938GGbKBXr6+5u/1EKWxbrIh5EyU0dvKMuM8o9lIV28hMkPLIXaybQA+8hHMZvoO5bBlMbl4LuvsCBXym6tWk1Er+kBcobA4+UlOv8c6521MYvJ8InrAMr1DN/IQ8RusK7/XLSR9k3pE2kTcfrEbbaqW0TwVgmcjZCB9pLbaEtmO3ku7hj1nqTulOC7xBt5kFd6n0zpn0M2y0dLCkTVGuuFW66n8OpuunOYS1wlhRSzIoT2WLRQq8GoYvONEl7dC7hBku/NpFnt5QFhZu0Dm8U+4dpUymvTIIeP32X2p0LO50PLbLKZeAnXHwnaAWiyh2Ajn81Um2hhg/tYGkrJJpG/PihoywB/yaXiNvEddJtDAuYTQTssMxKc1h6z9inU0eSO4coRIGY2B3O9eKVMvsIj+DlZbtZKQFcytQPnZ3SDo2ZQBa8Vyq2Ocdxxi1aZCHEmOkaDVYBBtQVWw3HBdsurjNsmqifAjkY7cC4G8LUW2BROv9PO7iRXJ2rlGRDnqXo7Uw8Aflr0mPncGft37c81SOrnYEftXWAggE4ScfHSRibJWa5RUs+lQJyD5V90BrS6vEXgF+cdZvwFzpYTXQQ72iSzvARgN0vACbUO8+DLUzIPcRyMPm3rrNIAYAMkZIfk56vdsotwsKPNzFjTEeL2d7hFHvznQJxZzAslmbzlaovkV2Mgzn6lInK8HkCup+TEX9u5JWgucpdF5BUoBaighDOtdldXOcYhOwPgztOitmt2V/EQZ6ol8BxqYPO1hKTR7molOHMtkVEtBGtgT+jaQM7rbH7yiIIsMpJj+lBFACpHSebaAnGaIzZhT6TKLiWcN8DB7caj6iHQTSWc33AsK3Q7BBqghDObKVoAg6f5Sji/BTmFTf86BIpTwglnzLd41G0ItE8J5yKQ0+QD1dB4ma6EMx1OmfnlPgvCfKegXmiMhDn5JOIoCPqenXMrQ2mgCqE7IOgiO+ddBs57CJWBoHZ2zh8YOGcipAdB+gpWSv/7DJzNsLu17j8MUsdSjpsDVR/MMryejfLcHRbOHxEqwN1/sGnpdNmh0U9snPKd2JBc/TAIy7lfSLVw8jNCmq4lZwssgZzpEQvlMXE61hRdP5Cr4W+MwDa9BaF2/LmCdBDgNaaQz2aPlsOUCbxHK27v7fmL5EPy8GPrT9rxIitlrVU09x4Ic0ZMW5hrV2TDD+1kHtOEf5tWp4+guuArFKP5R4cIUdBjZzkP4hv+lX/0hCFXVCP1hLB5lbCoCDnG/S3Oce4j9GWT8JB0DNdudIbyN1K69FR4+ozkMBY4QbmEtEWWmZONCcQzxd9dP7JiSYu8z65Zp5byIVQmIHv5LJWftPtkYpONwDg4FNqYJZdcnc/QWCANlBQ1O0iF+JEbfCa+1uMMrtPkD2ksnncaZai1LN+90ziTbJHwkM7ifGKbaORTvcslKoT448ZV2eQuJwZ/qv4PIlZmXzCdQLqUs8AujOhR1hmc4fawuE7g9HM4vxo/3P2cvRxxk9zOmd7h5DWhxc2c+ryOwFqdezmTcMibbuVMwWYCY3HBWEaaCsGcipu88K/nG+s+R7uBNCYBbqMcQfyByXjbTZSRL8kfv5RSuFkbQBdKpS92EG3GacnnbM+ByXqPfG6xgm7ZNY32swBN/iRygmllFSk0NfRUWV1kqMUOuw+er2ETFNIZfBBLXF5FCBpmU41bCZQX2FKBV6fx5iUUm5f434F161n9pRa/ZIrJPwka++PzZk92J12KrxWeJNXDjH/hy+AeSnYG4yTsDy8FbVi0Bl+Vua30l9jGB9i0Cre8tbuw6VVTjOJNcOwl7Ca+6JVjGegENmac1agqjaz9GzsVC4fZ0m/N02psSaYmWKMyQ49qxS/01H+WXlk4NyL4QmAxfoXk1yP10pZkUL5z3bjmZDmrtClNEaEu8ClyXv6t28jMWLx8JHKReEcnMhCawsIrkQvFpzn7Fr2HgcH1yPWivTvvP+yajQzL9E1AbpOeeS9W5xeNzkkr41LTEsclZ8UveFSqtJH/AUMt8ZPdmA04AAAAJXRFWHRkYXRlOmNyZWF0ZQAyMDIyLTA3LTI4VDE3OjUzOjQ1KzAwOjAwY7P6gwAAACV0RVh0ZGF0ZTptb2RpZnkAMjAyMi0wNy0yOFQxNzo1Mzo0NSswMDowMBLuQj8AAAAASUVORK5CYII=;" parent="1" vertex="1">
          <mxGeometry x="-220" y="350" width="52.46" height="52" as="geometry" />
        </mxCell>
        <mxCell id="2QkX6RSnDl6fCv8vAZ2F-16" value="browse dashboard" style="edgeStyle=orthogonalEdgeStyle;rounded=0;orthogonalLoop=1;jettySize=auto;html=1;" parent="1" source="2QkX6RSnDl6fCv8vAZ2F-15" target="2QkX6RSnDl6fCv8vAZ2F-4" edge="1">
          <mxGeometry relative="1" as="geometry" />
        </mxCell>
        <mxCell id="cll1lDOGX3wjiRTEKiis-1" value="Run ansible playbook" style="rounded=0;orthogonalLoop=1;jettySize=auto;html=1;entryX=0;entryY=0.75;entryDx=0;entryDy=0;" edge="1" parent="1" source="2QkX6RSnDl6fCv8vAZ2F-15" target="2QkX6RSnDl6fCv8vAZ2F-1">
          <mxGeometry relative="1" as="geometry" />
        </mxCell>
        <mxCell id="cll1lDOGX3wjiRTEKiis-2" value="Run ansible playbook" style="rounded=0;orthogonalLoop=1;jettySize=auto;html=1;entryX=0;entryY=0.5;entryDx=0;entryDy=0;" edge="1" parent="1" source="2QkX6RSnDl6fCv8vAZ2F-15" target="2QkX6RSnDl6fCv8vAZ2F-2">
          <mxGeometry relative="1" as="geometry" />
        </mxCell>
        <mxCell id="2QkX6RSnDl6fCv8vAZ2F-15" value="" style="image;points=[];aspect=fixed;html=1;align=center;shadow=0;dashed=0;image=img/lib/allied_telesis/computer_and_terminals/Laptop.svg;" parent="1" vertex="1">
          <mxGeometry x="-840" y="160" width="108.45" height="110" as="geometry" />
        </mxCell>
        <mxCell id="2QkX6RSnDl6fCv8vAZ2F-17" value="VPN&#xa;Connection" style="sketch=0;outlineConnect=0;fontColor=#232F3E;gradientColor=none;strokeColor=#232F3E;fillColor=#ffffff;dashed=0;verticalLabelPosition=bottom;verticalAlign=top;align=center;html=1;fontSize=12;fontStyle=0;aspect=fixed;shape=mxgraph.aws4.resourceIcon;resIcon=mxgraph.aws4.vpn_connection;" parent="1" vertex="1">
          <mxGeometry x="-810" y="40" width="60" height="60" as="geometry" />
        </mxCell>
      </root>
    </mxGraphModel>
  </diagram>
</mxfile>
